
<?xml version="1.0" standalone="no"?>
<!DOCTYPE svg PUBLIC "-//W3C//DTD SVG 1.1//EN" "http://www.w3.org/Graphics/SVG/1.1/DTD/svg11.dtd" >
<svg xmlns="http://www.w3.org/2000/svg">
<metadata>
<json>
<![CDATA[
{
	"fontFamily": "anychart",
	"majorVersion": 2,
	"minorVersion": 5,
	"fontURL": "http://anychart.com",
	"description": "AnyChart Front\nFont generated by IcoMoon.",
	"copyright": "http://anychart.com",
	"version": "Version 2.5",
	"fontId": "anychart",
	"psName": "anychart",
	"subFamily": "Regular",
	"fullName": "anychart"
}
]]>
</json>
</metadata>
<defs>
<font id="anychart" horiz-adv-x="1024">
<font-face units-per-em="1024" ascent="960" descent="-64" />
<missing-glyph horiz-adv-x="1024" />
<glyph unicode="&#x20;" horiz-adv-x="512" d="" />
<glyph unicode="&#xe900;" glyph-name="ac-logo" data-tags="ac-logo" d="M857.117 128.25h-178.9v652.85h178.9v-652.85zM602.118 128.25h-178.9v460.6h178.9v-460.6zM357.8 128.25h-178.9v295.051h178.9v-295.051zM946.566-64h-870.467q-28.037 0-52.068 24.031t-24.031 54.738v869.132q0 28.037 24.031 52.068t52.068 24.031h870.467q29.372 0 53.403-24.031t24.031-52.068v-869.132q0-30.707-24.031-54.738t-53.403-24.031zM84.11 911.937q-36.047 0-36.047-36.047v-853.111q0-38.717 36.047-38.717h854.446q37.382 0 37.382 38.717v853.111q0 36.047-37.382 36.047h-854.446z" />
<glyph unicode="&#xe901;" glyph-name="ac-anychart" data-tags="ac-anychart" d="M567.609 838.764q91.178 0 171.335-35.068 80.157-36.070 140.274-97.19t95.186-143.28q36.070-82.16 36.070-175.342 0-94.184-34.067-176.344-35.068-82.16-95.186-143.28t-140.274-96.188q-81.159-36.070-173.339-36.070t-172.337 35.068q-81.159 36.070-141.276 97.19-60.117 62.121-94.184 144.282-35.068 82.16-35.068 175.342v19.037h423.829v431.844h19.037zM852.166 96.312q27.053 28.055 49.096 61.119t37.072 69.135q15.029 37.072 22.043 77.151 8.016 41.080 7.014 84.164 0 42.082-8.016 82.16t-23.045 77.151q-16.031 37.072-37.072 70.137-22.043 33.065-49.096 61.119-52.102 53.104-120.235 84.164-68.133 32.063-146.286 36.070v-430.842h-422.827q4.008-80.157 35.068-149.292 32.063-69.135 83.162-122.239 28.055-28.055 60.117-50.098 33.065-22.043 69.135-37.072 36.070-16.031 75.147-24.047 40.078-9.018 82.16-9.018t81.159 8.016q40.078 8.016 76.149 23.045 37.072 16.031 69.135 38.074t60.117 51.1zM476.431 489.080h-462.905v19.037q0 94.184 34.067 176.344 35.068 82.16 95.186 143.28t141.276 96.188q81.159 36.070 172.337 36.070h20.039v-470.921zM437.355 919.922q-78.153-3.006-146.286-35.068-69.135-32.063-119.233-85.166-52.102-52.102-83.162-122.239t-35.068-149.292h383.75v391.766z" />
<glyph unicode="&#xe902;" glyph-name="ac-anychart2" data-tags="ac-anychart2" d="M574.244 867.136q98.383 0 180.706-34.132 82.32-35.135 141.552-95.372 60.235-61.238 93.366-144.565 34.132-83.325 34.132-181.709t-37.145-184.722q-38.148-86.338-102.398-150.588-64.251-65.254-150.588-102.398-87.341-37.145-184.722-37.145-98.383 0-181.709 34.132t-143.562 94.369q-61.238 61.238-95.372 143.562-35.135 83.325-35.135 181.709 0 13.051 9.036 22.087 10.039 9.036 23.090 9.036t22.087-9.036q10.039-9.036 10.039-22.087 0-85.332 29.115-156.611t81.317-123.483 123.483-80.314q72.282-29.115 157.616-29.115 84.329 0 158.619 32.126 75.293 32.126 130.51 88.344 56.221 56.221 88.344 130.51 32.126 75.293 32.126 159.622 0 85.332-28.109 157.616-28.109 71.277-78.305 123.483-51.199 52.202-121.474 81.317-71.277 29.115-156.611 29.115-13.051 0-22.087 9.036-9.036 10.039-9.036 23.090t9.036 22.087q9.036 10.039 22.087 10.039zM479.875 511.751q0-13.051-9.036-22.087-10.039-9.036-23.090-9.036h-415.622q-13.051 0-22.087 9.036-10.039 9.036-10.039 22.087 0 93.366 35.135 174.682 35.135 82.32 95.372 142.555 61.238 60.235 142.555 95.372 82.32 35.135 175.685 35.135 13.051 0 22.087-9.036 9.036-10.039 9.036-23.090v-415.622z" />
<glyph unicode="&#xe903;" glyph-name="ac-desktop" data-tags="ac-desktop" d="M225.099 335.953q-21.103 0-36.177 15.074-15.074 16.079-12.059 39.191 0 21.103 15.074 36.177 16.079 16.079 37.182 16.079 5.025 0 9.044-1.005t9.044-2.010l102.5 117.574q-2.010 4.020-3.015 10.049-2.010 6.029-2.010 12.059 0 22.108 15.074 37.182 16.079 15.074 37.182 15.074t35.172-13.064q15.074-14.069 17.083-35.172l99.486-49.24q7.034 6.029 16.079 10.049 10.049 4.020 21.103 4.020 8.039 0 16.079-3.015 9.044-3.015 15.074-8.039l128.628 109.535q0 3.015-1.005 7.034-2.010 4.020-2.010 9.044 0 22.108 15.074 37.182 16.079 15.074 38.186 15.074 21.103 0 35.172-16.079 15.074-17.083 15.074-38.186 0-22.108-15.074-37.182-16.079-15.074-37.182-15.074-7.034 0-11.054 1.005l-10.049 4.020-136.667-117.574v-3.015q0-21.103-15.074-36.177-16.079-16.079-37.182-16.079-22.108 0-37.182 15.074-16.079 15.074-16.079 36.177l-97.476 49.24q-7.034-8.039-17.083-12.059-10.049-5.025-21.103-5.025-5.025 0-8.039 1.005-4.020 0-8.039 2.010l-104.51-118.579 2.010-10.049q2.010-5.025 2.010-9.044 0-22.108-15.074-37.182-16.079-16.079-38.186-16.079zM958.681 864.534q27.132 0 45.221-19.093t20.098-46.226v-542.65q0-27.132-18.088-45.221-19.093-19.093-46.226-19.093h-417.036v-96.471h159.78q14.069 0 23.113-9.044 9.044-10.049 9.044-23.113t-9.044-22.108q-9.044-10.049-23.113-10.049h-382.869q-14.069 0-23.113 9.044-9.044 10.049-9.044 23.113t9.044 22.108q9.044 10.049 23.113 10.049h159.78v96.471h-415.027q-27.132 0-45.221 18.088-19.093 19.093-19.093 46.226v543.655q0 26.128 18.088 45.221 19.093 19.093 46.226 19.093h894.367zM959.685 256.565v542.65h-895.372v-542.65h895.372z" />
<glyph unicode="&#xe904;" glyph-name="ac-chart-column" data-tags="ac-chart-column" d="M988.672 959.999q13.932 0 22.888-8.956 9.951-9.951 9.951-22.888v-959.316q0-12.937-9.951-21.893-9.951-9.951-22.888-9.951h-229.878q-13.932 0-22.888 8.956-9.951 9.951-9.951 22.888v959.316q0 12.937 9.951 21.893 9.951 9.951 22.888 9.951h229.878zM265.205 639.564q14.927 0 23.883-8.956 9.951-8.956 8.956-21.893v-640.871q0-12.937-9.951-21.893-9.951-9.951-22.888-9.951h-229.878q-13.932 0-22.888 8.956-9.951 9.951-9.951 22.888v640.871q0 12.937 9.951 21.893t22.888 8.956h229.878zM628.431 449.492q12.937 0 21.893-8.956 8.956-9.951 7.961-22.888v-448.809q0-12.937-8.956-21.893-9.951-9.951-22.888-9.951h-230.873q-13.932 0-22.888 8.956-9.951 9.951-9.951 22.888v448.809q0 12.937 9.951 21.893 9.951 9.951 22.888 9.951h232.863z" />
<glyph unicode="&#xe905;" glyph-name="ac-chart-gauge" data-tags="ac-chart-gauge" d="M1021 234v0 0q0-12-6-18-7-7-20-6h-217q-9 0-16 7-7 8-7 17t7 16 16 7h195q0 6 1 12t1 12q0 96-36 180-37 84-100 147-63 62-147 98-84 37-180 37t-180-36q-84-37-147-100t-99-147q-37-84-37-179 0-5 1-11t1-13h194q9 0 15-7 7-8 7-17t-7-16q-7-8-16-8h-217q-10 0-17 7-7 8-7 17v0 0 0l-2 24-1 24q0 106 40 199 41 93 110 162 70 69 163 109 94 41 200 41t199-40 162-109q70-70 110-162 40-93 40-199 0-12-1-24zM382 521q160-118 209-173 50-56 49-56 27-43 13-90t-59-73q-45-25-95-13-51 13-77 56 0 1-27 69t-53 257l2-2q-2 7 1 15 3 7 10 11 7 3 15 2t14-5z" />
<glyph unicode="&#xe906;" glyph-name="ac-folder" data-tags="ac-folder" d="M980.059 701.864c-28.48 29.292-63.058 43.938-103.743 43.938h-363.706v23.191c0 41.494-15.054 76.482-45.159 104.962-29.292 29.292-63.873 43.938-103.743 43.938h-213.587c-41.497 0-76.892-14.646-106.184-43.938-29.292-28.478-43.938-63.465-43.938-104.962v-657.845l0.681 0.681c3.192-34.918 17.608-64.846 43.257-89.783 28.48-29.292 63.058-43.938 103.743-43.938h728.639c40.683 0 75.263 14.646 103.743 43.938 29.292 28.478 43.938 63.465 43.938 104.962v469.896c-0.002 41.497-14.648 76.484-43.94 104.962z" />
<glyph unicode="&#xe907;" glyph-name="ac-file-image-o" data-tags="ac-file-image-o" horiz-adv-x="880" d="M841.22 742.424c10.646-10.646 19.961-25.284 27.945-43.914 7.984-17.965 11.977-34.266 11.977-48.904v-658.713c0-15.969-5.322-29.276-15.969-39.922-10.646-9.98-23.62-14.971-38.924-14.971h-769.497c-15.969 0-28.943 4.99-38.924 14.971-10.646 10.646-15.969 23.953-15.969 39.922v914.214c0 15.969 4.99 28.943 14.971 38.924 10.646 10.646 23.953 15.969 39.922 15.969h512c15.969 0 32.936-3.66 50.901-10.979 18.63-7.319 32.935-16.634 42.916-27.944l178.651-178.653zM588.713 883.149v-215.579h213.583c-3.992 10.646-7.984 18.631-11.977 23.953l-178.651 178.651c-5.322 4.657-12.975 8.982-22.955 12.975zM808.285 8.857v585.856h-239.532c-14.638 0-27.28 5.323-37.926 15.969-11.312 10.646-16.967 23.621-16.967 38.924v237.536h-439.142v-878.285h733.567zM733.431 265.356v-184.639h-584.858v109.786l109.786 110.783 72.857-72.857 219.572 219.571 182.643-182.644zM335.209 407.078c-20.627-21.292-46.243-31.938-76.85-31.938-31.272 0-57.222 10.313-77.848 30.939-21.292 21.292-31.938 47.242-31.938 77.849 0 31.271 10.313 57.554 30.94 78.846 21.292 21.292 47.241 31.938 77.848 31.938 31.271 0 57.554-10.646 78.846-31.938 21.957-21.292 32.936-47.574 32.936-78.846 0-30.605-11.311-56.223-33.934-76.85v0z" />
<glyph unicode="&#xe908;" glyph-name="ac-map-o" data-tags="ac-map-o" horiz-adv-x="1026" d="M994.47 824.869q12.012-3.003 21.020-14.014 9.008-12.012 8.008-26.026v-822.803q0-11.011-6.006-17.016-7.007-7.007-17.016-7.007-2.002 0-3.003 1.001-2.002 1.001-5.005 1.001l-320.313 126.124-318.311-130.128-322.315 128.125q-12.012 4.004-21.020 15.015-9.008 12.012-9.008 25.024v831.812q0 11.011 6.006 17.016 7.007 7.007 16.016 7.007h5.005q2.002-1.001 3.003-2.002l322.315-126.124 320.313 126.124zM385.875 16.079l256.25 101.099v762.745l-256.25-101.099v-120.117q42.041-10.010 69.068-43.042t27.026-77.075-27.026-77.075q-28.027-33.033-69.068-43.042v-402.393zM65.562 120.18l256.25-104.102v405.396q-37.037 11.011-61.060 44.043-25.024 32.031-25.024 73.072t24.023 73.072q25.024 32.031 62.061 44.043v123.12l-256.25 94.092v-752.735zM960.436 767.813l-256.25 110.107v-760.743l256.25-96.094v746.73z" />
<glyph unicode="&#xe909;" glyph-name="ac-book" data-tags="ac-book" horiz-adv-x="1026" d="M950.853 952.984q27.053 7.014 49.096-9.017 22.043-17.034 22.043-44.086v-774.511q0-24.047-16.031-44.086t-39.076-26.051l-419.82-114.223q-9.017-4.008-20.039-4.008-11.022-1.002-18.035-1.002-11.022 0-21.041 1.002-11.022 2.004-19.037 4.008l-410.801 114.223q-23.045 6.012-38.074 26.051-16.031 20.039-16.031 44.086v772.508q0 29.057 22.043 45.088 22.043 17.034 50.097 10.020l408.798-114.223q8.016-2.004 22.043-2.004t23.045 2.004zM479.933 3.13v771.506q-4.008 1.002-7.014 1.002l-6.012 2.004-400.783 111.217v-763.491q0-2.004 3.006-5.009l5.009-5.009 407.796-112.219h-2.004zM957.867 125.369v763.491l-413.807-111.217v-770.504l406.794 108.211q3.006 2.004 5.009 5.009 3.006 3.006 3.006 5.009h-1.002zM642.25 590.276q-10.020 0-18.035 7.014-9.017 6.012-11.022 17.034-4.008 12.023 2.004 23.045 7.014 12.023 20.039 15.029l223.437 63.123q12.023 3.006 23.045-3.006t15.029-20.039q4.008-12.023-2.004-23.045-7.014-11.022-20.039-15.029l-224.438-62.122q-2.004-2.004-4.008-2.004h-4.008zM642.25 399.904q-10.020 0-18.035 6.012-9.017 7.014-13.025 18.035-3.006 12.023 3.006 23.045t20.039 15.029l222.434 62.122q12.023 4.008 23.045-2.004 12.023-7.014 15.029-20.039 4.008-12.023-2.004-23.045-7.014-12.023-20.039-15.029l-222.434-63.123q-2.004-1.002-4.008-1.002h-4.008zM642.25 208.531q-10.020 0-18.035 6.012-9.017 7.014-13.025 18.035-3.006 12.023 3.006 23.045 6.012 12.023 20.039 16.031l222.434 62.122q12.023 4.008 23.045-2.004 12.023-7.014 15.029-20.039 4.008-12.023-2.004-23.045-7.014-12.023-20.039-16.031l-222.434-62.122q-2.004-1.002-4.008-1.002-2.004-1.002-4.008-1.002zM396.771 652.398q12.023-3.006 19.037-14.028 7.014-12.023 3.006-26.051-2.004-9.017-10.020-15.029-9.017-7.014-20.039-7.014h-3.006l-5.009 2.004-223.437 62.122q-13.025 4.008-19.037 14.028-7.014 11.022-3.006 24.047 2.004 14.028 14.028 20.039t24.047 3.006zM396.771 462.026q12.023-4.008 19.037-15.029 7.014-12.023 3.006-25.049-2.004-10.020-10.020-16.031-9.017-6.012-20.039-6.012h-3.006l-5.009 1.002-223.437 63.123q-13.025 3.006-19.037 14.028-7.014 11.022-3.006 24.047 2.004 13.025 14.028 20.039 12.023 6.012 24.047 2.004zM396.771 271.654q12.023-4.008 19.037-15.029 7.014-12.023 3.006-25.049-2.004-10.020-10.020-16.031-9.017-7.014-20.039-7.014h-3.006q-3.006 1.002-5.009 2.004l-223.437 62.122q-13.025 4.008-19.037 14.028-7.014 11.022-3.006 25.049 2.004 13.025 14.028 19.037 12.023 7.014 24.047 3.006z" />
<glyph unicode="&#xe90a;" glyph-name="ac-envelope" data-tags="ac-envelope" d="M1024 837.761v-779.523h-1024v779.523h1024zM209.409 732.555l302.591-251.491v-2.004l304.595 253.495h-607.186zM920.798 165.448v515.006l-408.798-330.646-406.795 330.646v-515.006h815.593z" />
<glyph unicode="&#xe90b;" glyph-name="ac-phone-call" data-tags="ac-phone-call" horiz-adv-x="1026" d="M820.201 236.705q18.982 0 32.968-13.986 14.985-14.985 14.985-34.966v-193.811q0-19.981-13.986-33.967t-33.967-13.986q-169.835 0-318.69 63.938-149.854 64.937-260.746 175.829-111.891 111.891-175.829 260.746-64.937 149.854-64.937 319.689 0 19.981 13.986 33.967t33.967 13.986h193.811q19.981 0 33.967-13.986t13.986-33.967v-193.811q0-8.991-3.996-17.982-4.995-8.991-10.989-14.985l-100.902-100.902q26.974-50.95 59.942-96.906 33.967-45.955 73.928-85.916 40.96-40.96 86.915-73.928 45.955-33.967 97.905-59.942l100.902 100.902q5.994 6.993 14.985 9.99 8.991 3.996 17.982 3.996h193.811zM794.227 553.396l87.914-87.914-380.629-39.961 39.961 380.629 87.914-89.912 231.774 233.772 164.839-164.839z" />
<glyph unicode="&#xe90c;" glyph-name="ac-support" data-tags="ac-support" horiz-adv-x="1026" d="M512.004 960q106.584 0 199.222-39.844 93.634-40.84 162.366-110.568 69.728-69.728 109.572-162.366 40.84-93.634 40.84-199.222t-39.844-198.226q-40.84-93.634-110.568-163.362t-162.366-109.572q-93.634-40.84-199.222-40.84t-198.226 39.844q-93.634 40.84-162.366 110.568-69.728 69.728-109.572 162.366-39.844 93.634-39.844 199.222t39.844 198.226q39.844 93.634 108.576 163.362 69.728 69.728 162.366 109.572 93.634 40.84 199.222 40.84zM851.677 679.097q-21.914 31.875-48.809 58.77-27.891 27.891-59.767 49.805l-73.712-127.502q15.938-11.953 28.887-24.903 13.946-13.946 25.899-29.883zM677.358 448q0 67.735-47.813 116.545-48.809 47.813-115.549 47.813-68.732 0-116.545-47.813-47.813-48.809-47.813-116.545t47.813-115.549q47.813-48.809 116.545-48.809 67.735 0 115.549 47.813 47.813 48.809 47.813 116.545zM512.004 859.393q-41.837 0-81.681-8.965-40.84-9.961-79.689-25.899l73.712-127.502q21.914 6.973 42.833 9.961 21.914 3.984 44.825 3.984 28.887 0 54.786-5.977 26.895-5.977 51.798-15.938l73.712 127.502q-40.84 19.922-85.665 30.879-45.821 11.953-94.63 11.953zM299.833 798.63q-32.872-19.922-62.755-45.821-29.883-26.895-53.79-57.774l129.494-74.708q12.949 14.942 27.891 27.891 15.938 13.946 32.872 24.903zM102.603 448q0-47.813 9.961-92.638 10.957-44.825 30.879-85.665l127.502 72.716q-9.961 25.899-15.938 51.798t-5.977 53.79q0 33.868 7.969 65.743 7.969 30.879 23.907 58.77l-127.502 72.716q-23.907-42.833-36.856-92.638-13.946-50.802-13.946-104.591zM171.335 218.895q21.914-32.872 49.805-60.763 28.887-28.887 61.759-50.802l72.716 127.502q-16.934 11.953-30.879 25.899t-25.899 30.879zM512.004 36.607q54.786 0 104.591 12.949 49.805 13.946 92.638 37.852l-72.716 127.502q-27.891-14.942-58.77-22.911-31.875-8.965-65.743-8.965-28.887 0-54.786 5.977-26.895 5.977-50.802 16.934l-72.716-127.502q40.84-20.918 85.665-30.879 44.825-10.957 92.638-10.957zM759.039 119.284q30.879 23.907 57.774 52.794t47.813 63.751l-127.502 73.712q-10.957-16.934-23.907-31.875-13.946-15.938-28.887-28.887zM889.529 286.63q16.934 37.852 24.903 77.696 8.965 40.84 8.965 83.673 0 47.813-9.961 93.634-10.957 45.821-31.875 86.661l-127.502-73.712q10.957-23.907 16.934-50.802t5.977-55.782q0-23.907-3.984-45.821t-10.957-41.837z" />
<glyph unicode="&#xe90d;" glyph-name="ac-print" data-tags="ac-print" horiz-adv-x="1026" d="M203.73 60.493h618.541v170.125h-618.541v-170.125zM203.73 483.705h618.541v189.028h-86.113q-33.605 0-61.959 23.103-29.404 23.103-29.404 58.809v86.113h-441.065v-357.052zM952.489 398.643q12.602 13.652 12.602 33.605t-13.652 34.655q-13.652 15.752-34.655 15.752t-35.705-14.702q-14.702-15.752-14.702-35.705t14.702-33.605q14.702-14.702 35.705-14.702t35.705 14.702zM1026 436.448v-256.238q0-8.401-5.251-13.652-6.301-6.301-15.752-6.301h-137.57v-98.714q0-25.204-16.802-42.006t-42.006-16.802h-591.237q-25.204 0-42.006 16.802-17.853 16.802-17.853 42.006v98.714h-137.57q-8.401 0-13.652 5.251-6.301 6.301-6.301 14.702v256.238q0 48.307 35.705 84.012 35.705 34.655 82.962 34.655h38.856v279.341q0 23.103 16.802 40.956 17.853 17.853 43.056 17.853h413.761q24.154 0 53.558-11.552 29.404-12.602 47.257-30.454l92.414-94.514q17.853-16.802 30.454-46.207t12.602-54.608v-100.815h40.956q46.207 0 81.912-34.655 35.705-35.705 35.705-84.012z" />
<glyph unicode="&#xe90e;" glyph-name="ac-print2" data-tags="ac-print2" d="M256 896h512v-128h-512v128zM960 704h-896q-26 0-45-19t-19-45v-320q0-26 19-45t45-19h192v-256h512v256h192q26 0 45 19t19 45v320q0 26-19 45t-45 19zM128 512q-27 0-45 19-19 18-19 45t18 45q19 19 46 19t45-18q19-19 19-46t-18-45q-19-19-46-19zM704 64h-384v320h384v-320z" />
<glyph unicode="&#xe90f;" glyph-name="ac-position-center2" data-tags="ac-position-center2" horiz-adv-x="883" d="M389.921 960h104.828v-246.069l118.068-1.103-172.137-169.931-169.931 171.035h119.172v246.068zM1.507 395.033v105.932h882.759v-105.932h-882.759zM270.748 184.276l171.034 168.828 171.035-169.931-118.068 1.103v-248.276h-104.828v248.276h-119.173z" />
<glyph unicode="&#xe910;" glyph-name="ac-rectangle-2" data-tags="ac-rectangle-2" horiz-adv-x="504" d="M5.077 960h501.259v-1024h-501.259v1024zM438.308 2.834v890.331h-366.396v-890.331h366.396z" />
<glyph unicode="&#xe911;" glyph-name="ac-upload" data-tags="ac-upload" d="M776 45.5q12 12 12 28 0 17-11 28-12 12-28 12t-27-11q-12-12-12-28 0-17 11-28 12-12 28-12t27 11zM935 45.5q11 12 11 28 0 17-11 28-12 12-28 12-17 0-28-11-12-12-12-28 0-17 11-28 12-12 28-12 17 0 29 11zM1024 211.5v-197q0-25-17-42t-42-17h-906q-24 0-41 17-18 17-18 42v197q0 25 17 42 18 17 42 17h263q13-34 43-56 31-22 69-22h157q37 0 67 22 31 22 44 56h263q25 0 42-17t17-42zM824 611.5q-10-25-36-25h-158v-276q0-17-11-28-12-12-28-12h-157q-16 0-28 11-12 12-12 29v276h-158q-25 0-35 25-11 23 8 42l276 276q11 11 27 11 17 0 28-11l276-276q18-19 8-42z" />
<glyph unicode="&#xe912;" glyph-name="ac-cloud-upload" data-tags="ac-cloud-upload" d="M682.333 430.517q0 7.992-4.995 12.987l-186.818 187.817q-4.995 3.996-11.988 3.996-7.992 0-12.987-3.996l-186.818-187.817q-4.995-5.994-4.995-12.987t3.996-11.988q4.995-4.995 11.988-4.995h119.883v-187.817q0-5.994 4.995-10.989 5.994-5.994 11.988-5.994h101.9q6.993 0 11.988 4.995 5.994 5.994 5.994 11.988v187.817h118.884q6.993 0 11.988 4.995 4.995 5.994 4.995 11.988zM1024 277.666q0-84.917-59.941-144.859-60.94-59.941-144.859-59.941h-579.434q-98.903 0-168.835 69.932-70.931 69.932-70.931 168.835 0 68.933 36.964 127.875 37.963 58.942 100.901 87.914-0.999 15.984-0.999 21.979 0 113.889 79.922 193.811t192.812 79.922q83.918 0 152.851-45.955 68.933-46.954 99.902-122.88 37.963 32.968 87.914 32.968 56.944 0 96.905-39.961 39.961-40.96 39.961-97.904 0-39.961-21.979-72.929 69.932-16.983 113.889-71.93 44.956-55.945 44.956-126.876z" />
<glyph unicode="&#xe913;" glyph-name="ac-download-zip" data-tags="ac-download-zip" d="M1007 235.713c-11.331 10.485-25.331 15.723-42 15.723h-263c-8.666-20.963-23.331-38.229-44-51.792-19.334-13.565-41.666-20.349-67-20.349h-157c-25.333 0-48.333 6.784-69 20.349-20 13.565-34.333 30.83-43 51.792h-263c-15.333 0-29.333-5.24-42-15.723-11.333-10.482-17-23.43-17-38.845v-182.202c0-16.030 6-28.978 18-38.843 11.333-10.482 25-15.723 41-15.723h906c16.669 0 30.669 5.242 42 15.723 11.334 10.483 17 23.432 17 38.843v182.202c0 15.414-5.666 28.363-17 38.845zM806.917 64.265c-11.224-11.227-25.003-16.842-41.339-16.842-16.328 0-30.619 6.123-42.867 18.371-11.227 11.232-16.842 25.52-16.842 42.872 0 16.33 6.123 30.619 18.373 42.867 11.229 11.23 25.008 16.843 41.336 16.843 16.336 0 30.624-6.125 42.872-18.374 11.23-11.227 16.84-25.515 16.84-42.869 0.002-16.328-6.123-30.621-18.373-42.869zM968.752 64.265c-13.267-11.227-28.067-16.842-44.402-16.842-16.33 0-30.621 6.123-42.87 18.371-11.226 11.232-16.84 25.52-16.84 42.872 0 16.33 6.123 30.619 18.373 42.867 11.229 11.23 25.52 16.843 42.867 16.843 16.336 0 30.622-6.125 42.872-18.374 11.229-11.227 16.84-25.515 16.84-42.869 0-15.309-5.613-29.6-16.84-42.869zM733.206 449.354h-442.222c-10.186-1.44-17.467-6.589-21.818-15.472-5.194-9.333-3.115-18.238 6.232-26.722l215.002-175.595c5.712-4.666 12.982-7.002 21.811-7.002 8.309 0 15.32 2.336 21.034 7.002l215 175.595c9.869 8.058 11.947 16.966 6.234 26.722-4.357 8.885-11.451 14.034-21.272 15.472zM429.92 518.935h-310.299v57.325l199.926 286.627h-194.509v73.013h299.462v-57.040l-199.642-286.912h205.061v-73.013zM508.763 518.935v416.965h88.411v-416.965h-88.411zM983.101 805.849c0-44.875-14.024-79.192-42.062-102.96-28.050-23.768-67.931-35.648-119.642-35.648h-37.933v-148.306h-88.414v416.965h133.189c50.576 0 89.029-10.886 115.365-32.656 26.33-21.773 39.498-54.237 39.498-97.395zM783.462 739.681h29.090c27.19 0 47.533 5.37 61.032 16.114 13.502 10.741 20.251 26.384 20.251 46.917 0 20.722-5.659 36.029-16.97 45.917-11.312 9.885-29.046 14.832-53.189 14.832h-40.213v-123.779z" />
<glyph unicode="&#xe914;" glyph-name="ac-jsfiddle" data-tags="ac-jsfiddle" d="M979.043 404.543c-29.305 36.631-67.268 60.608-113.889 71.93 14.652 21.979 21.979 46.289 21.979 72.929 0 37.963-13.321 70.598-39.961 97.904-26.642 26.641-58.942 39.961-96.905 39.961-33.301 0-62.607-10.989-87.914-32.968-20.648 50.618-53.947 91.578-99.902 122.88-45.955 30.637-96.905 45.955-152.851 45.955-75.26 0-139.531-26.64-192.812-79.922s-79.922-117.885-79.922-193.811c0-3.996 0.333-11.322 0.999-21.979-41.959-19.314-75.593-48.619-100.901-87.914-24.643-39.295-36.964-81.92-36.964-127.875 0-65.936 23.644-122.214 70.931-168.835 46.621-46.62 102.9-69.932 168.835-69.932h579.434c55.945 0 104.23 19.98 144.859 59.941 39.961 39.961 59.941 88.248 59.941 144.859 0 47.288-14.985 89.58-44.956 126.876zM841.17 329.443c-5.95-33.966-20.897-62.906-44.776-86.884-23.448-23.987-52.064-38.997-85.847-44.963-11.267-1.989-23.116-3.003-35.537-3.003-52.16 0.037-100.401 20.746-141.897 62.095-11.209 11.199-21.93 23.88-32.108 38.116l-54.619 70.794c-9.235 14.201-19.229 26.475-29.617 36.866-27.978 27.898-58.812 41.858-85.24 41.858-8.202 0-15.887-1.075-23.056-3.206-11.907-3.542-22.327-10.084-31.319-19.6-10.997-11.633-17.893-25.026-20.626-40.168-0.912-5.025-1.397-10.286-1.368-15.717 0-21.52 6.987-39.935 20.96-55.212l1.063-1.113c15.006-15.247 33.446-22.837 55.318-22.837 27.493 0 54.56 10.251 84.025 42.294l48.117-62.363 5.316-7.115c-43.926-46.546-85.695-64.155-140.343-64.117-50.337 0-91.408 15.85-123.273 47.523-23.969 24.085-38.883 53.294-44.867 87.695-1.975 11.5-2.977 23.542-2.977 36.223-0.031 49.043 16.038 89.589 48.24 121.524 32.17 31.972 73.089 47.994 122.786 47.964 51.004 0 99.091-21.18 141.56-63.578 10.603-10.56 20.839-22.463 30.712-35.653l54.618-71.304c9.452-14.367 19.596-26.781 30.075-37.235 28.037-27.966 58.476-41.957 84.18-41.957 21.868 0 40.126 7.418 54.828 22.325 12.82 13.563 20.051 29.784 21.662 48.572l0.332 8.226c0 8.161-1.035 15.883-3.157 23.133-3.495 12.076-9.906 22.94-19.198 32.619-14.52 15.381-32.811 22.968-54.983 22.968-27.254 0-54.198-10.184-83.725-41.952l-48.364 63.139-5.891 7.318c42.29 46.009 84.511 63.278 141.349 63.278 50.364 0 91.131-15.887 122.332-47.597l0.697-0.638c31.709-31.638 47.601-72.551 47.601-122.742-0.003-12.407-1.006-24.277-2.979-35.576z" />
<glyph unicode="&#xe915;" glyph-name="ac-line" data-tags="ac-line" d="M1024 894.593l-958.593-958.593-65.407 65.407 965.026 958.593z" />
<glyph unicode="&#xe916;" glyph-name="ac-horizontal-line" data-tags="ac-horizontal-line" horiz-adv-x="1081" d="M-0.006 499.548h1081.013v-103.097h-1081.013v103.097z" />
<glyph unicode="&#xe917;" glyph-name="ac-vertical-line" data-tags="ac-vertical-line" horiz-adv-x="1081" d="M592.817 960v-1024h-104.635v1024h104.635z" />
<glyph unicode="&#xe918;" glyph-name="ac-infinite-line" data-tags="ac-infinite-line" d="M345.627 218.298l-60.109 66.549 392.855 393.929 67.623-61.182zM955.304 960l65.476-66.549-77.283-77.283-60.109 66.549zM745.996 744.252l76.21 78.356 61.182-67.623-71.916-71.916zM70.843-64l-67.623 67.623 77.283 71.916 66.549-61.182zM280.151 147.455l-77.283-71.916-62.256 60.109 79.43 77.283z" />
<glyph unicode="&#xe919;" glyph-name="ac-ray" data-tags="ac-ray" d="M536.585 533.512l66.271-60.927-536.585-536.585-66.271 60.927 5.344 10.689zM608.201 606.196l78.029 76.96 66.271-60.927-76.96-78.029zM956.66 960l67.34-66.271-76.96-78.029-61.996 67.34zM747.157 744.084l78.029 76.96 59.858-65.203-70.547-72.685z" />
<glyph unicode="&#xe91a;" glyph-name="ac-rectangle" data-tags="ac-rectangle" d="M955.376 960q27.879 0 48.251-18.228t20.373-50.396v-886.752q0-27.879-20.373-48.251t-48.251-20.373h-892.113q-24.662 0-43.962 20.373t-19.301 48.251v886.752q0 32.168 19.301 50.396t43.962 18.228h892.113zM929.642 871.004h-840.645v-840.645h840.645v840.645z" />
<glyph unicode="&#xe91b;" glyph-name="ac-ellipse" data-tags="ac-ellipse" d="M507.331-64q-104.786 0-197.123 39.425-92.336 40.462-160.811 108.936-69.512 69.512-108.936 161.848-40.462 92.336-40.462 197.123 0 106.861 39.425 201.273 40.462 94.411 108.936 163.923 69.512 70.549 161.848 111.011t197.123 40.462q106.861 0 201.273-40.462t163.923-109.974q70.549-70.549 111.011-164.96t40.462-201.273q0-104.786-40.462-197.123t-109.974-160.811q-70.549-69.512-164.96-108.936-94.411-40.462-201.273-40.462zM507.331 865.588q-86.111 0-160.811-33.2-75.737-33.2-131.761-90.261-56.024-58.099-88.186-134.873t-32.162-163.923q0-84.036 32.162-158.736t88.186-130.723q56.024-57.062 130.723-90.261 75.737-33.2 161.848-33.2 87.149 0 163.923 33.2t133.836 89.224q58.099 57.062 91.299 131.761t33.2 158.736q0 87.149-33.2 163.923t-90.261 133.836q-58.099 58.099-134.873 91.299t-163.923 33.2z" />
<glyph unicode="&#xe91c;" glyph-name="ac-triangle" data-tags="ac-triangle" d="M1011.953 113.192q12.047-24.094 12.047-50.196-1.004-26.102-17.067-45.176-12.047-24.094-34.133-36.141t-46.18-12.047h-828.235q-25.098 0-47.184 12.047t-34.133 36.141q-16.063 19.075-16.063 45.176-1.004 26.102 11.043 50.196l411.608 764.988q12.047 24.094 37.145 36.141t49.192 12.047q27.106 0 49.192-12.047 23.090-12.047 35.137-36.141zM926.62 65.004l-416.627 764.988-411.608-764.988h828.235z" />
<glyph unicode="&#xe91d;" glyph-name="ac-fibonacci-arc" data-tags="ac-fibonacci-arc" d="M9.728 960q138.24-3.072 266.24-40.96 129.024-37.888 240.64-104.448 111.616-67.584 202.752-160.768 92.16-93.184 157.696-205.824t101.376-241.664q35.84-130.048 35.84-270.336h-92.16q0 126.976-31.744 244.736-32.768 117.76-91.136 220.16-59.392 103.424-142.336 189.44-83.968 84.992-185.344 146.432t-218.112 96.256-243.712 36.864v90.112zM9.728 701.952q103.424-3.072 198.656-31.744 95.232-29.696 177.152-79.872 82.944-50.176 150.528-119.808 68.608-69.632 116.736-153.6 49.152-83.968 75.776-180.224 26.624-97.28 26.624-200.704h-92.16q0 91.136-22.528 176.128-23.552 84.992-65.536 158.72-43.008 74.752-101.376 136.192-59.392 61.44-132.096 106.496-72.704 44.032-156.672 69.632t-175.104 27.648v91.136zM9.728 491.008q108.544-4.096 204.8-49.152 97.28-46.080 168.96-121.856t113.664-174.080q41.984-99.328 41.984-209.92h-84.992q0 93.184-34.816 175.104-35.84 82.944-96.256 145.408-61.44 63.488-142.336 101.376t-171.008 41.984v91.136z" />
<glyph unicode="&#xe91e;" glyph-name="ac-fibonacci-fan" data-tags="ac-fibonacci-fan" d="M1021.417 100.295l-1018.834-164.295 148.795 1024h86.797l-103.33-702.644 349.255 702.644h97.13l-401.954-827.673 842.139 668.545v-115.73l-804.94-634.446 804.94 141.562v-91.964z" />
<glyph unicode="&#xe91f;" glyph-name="ac-fibonacci-retracement" data-tags="ac-fibonacci-retracement" d="M1024-61.33h-1024v108.913h1024v-108.913zM1024 848.417h-1024v108.913h1024v-108.913zM1024 679.708h-1024v62.999h1024v-62.999zM1024 484.305h-1024v60.863h1024v-60.863zM1024 204.547h-1024v58.728h1024v-58.728z" />
<glyph unicode="&#xe920;" glyph-name="ac-fibonacci-timezones" data-tags="ac-fibonacci-timezones" d="M911.232-60.794v1020.793h107.958v-1020.793h-107.958zM227.14-60.794v1020.793h-59.858v-1020.793h59.858zM421.679-60.794v1020.793h-58.789v-1020.793h58.789zM729.52-60.794v1020.793h-65.203v-1020.793h65.203zM60.393 389.21v113.303h-55.582v-113.303h55.582zM60.393 156.192v115.44h-55.582v-115.44h55.582zM4.811 615.816h55.582l5.344 114.372h-60.927v-114.372zM60.393 43.958h-55.582v-107.958h55.582v107.958zM65.738 845.628v114.372h-60.927v-114.372h60.927z" />
<glyph unicode="&#xe921;" glyph-name="ac-andrews-pitchfork" data-tags="ac-andrews-pitchfork" d="M1024 714.898l-583.776-147.805 77.624-143.551 506.152 126.538v-93.574l-468.935-115.904 78.687-143.551 390.247 98.891v-92.511l-434.908-110.588-121.221 220.112-467.871-115.904v94.638l423.211 104.208-114.841 225.429 87.194 22.33 628.436 159.502v-88.258z" />
<glyph unicode="&#xe922;" glyph-name="ac-trend-channel" data-tags="ac-trend-channel" d="M1024 467.14v-93.574l-1024-258.393v87.194zM1024 780.826v-93.574l-1024-263.709v93.574z" />
<glyph unicode="&#xe923;" glyph-name="ac-question-circle-thin" data-tags="ac-question-circle-thin" d="M512.498 960q105.69 0 199.416-39.883 93.725-40.88 162.524-109.679 69.796-69.796 109.679-162.524 39.883-93.725 39.883-200.413 0-105.69-39.883-198.419-40.88-93.725-109.679-162.524-69.796-69.796-162.524-109.679-93.725-40.88-199.416-40.88-106.687 0-199.416 39.883-93.725 40.88-162.524 109.679-69.796 69.796-109.679 162.524-40.88 93.725-40.88 199.416 0 106.687 39.883 199.416 40.88 93.725 109.679 162.524 69.796 69.796 162.524 109.679 93.725 40.88 200.413 40.88zM512.498-31.095q98.711 0 185.457 37.889 87.743 37.889 152.553 102.699t102.699 151.556q37.889 87.743 37.889 186.454 0 99.708-37.889 186.454-37.889 87.743-102.699 152.553t-151.556 101.702q-87.743 37.889-186.454 37.889-99.708 0-186.454-36.892-87.743-37.889-152.553-102.699t-101.702-151.556q-37.889-87.743-37.889-187.451 0-98.711 36.892-185.457 37.889-87.743 102.699-152.553t151.556-102.699q87.743-37.889 187.451-37.889zM597.25 130.431q0-9.971-5.982-14.956-5.982-5.982-15.953-5.982h-127.626q-8.974 0-14.956 4.985-5.982 5.982-5.982 15.953v128.623q0 8.974 5.982 13.959 5.982 5.982 14.956 5.982h127.626q9.971 0 15.953-4.985 5.982-5.982 5.982-14.956v-128.623zM767.75 577.123q0-27.918-7.977-52.845t-17.947-39.883q-10.968-15.953-29.912-32.904t-29.912-22.933q-11.965-5.982-33.901-18.944-22.933-12.962-36.892-32.904-13.959-20.939-13.959-32.904 0-9.971-5.982-14.956-5.982-5.982-15.953-5.982h-127.626q-8.974 0-14.956 4.985-5.982 5.982-5.982 15.953v22.933q0 45.866 34.898 84.752t76.775 57.831q32.904 13.959 45.866 29.912t12.962 39.883q0 21.936-24.927 39.883t-56.833 17.947q-33.901 0-57.831-16.95-21.936-15.953-55.836-60.822-7.977-8.974-16.95-8.974t-13.959 4.985l-87.743 65.807q-15.953 11.965-4.985 28.915 85.749 140.588 247.276 140.588 57.831 0 112.67-26.921 55.836-26.921 92.728-75.778 36.892-49.854 36.892-110.676z" />
<glyph unicode="&#xe924;" glyph-name="ac-ruler-paint-brush-o" data-tags="ac-ruler-paint-brush-o" horiz-adv-x="903" d="M600.483 418.449l-412.609 477.080v1.075c0 2.149 0.179 4.836 0.537 8.060 0.358 3.223 2.328 6.626 5.91 10.208l36.533 39.757c3.582 3.582 8.238 5.373 13.969 5.373 6.448 0 10.746-1.791 12.895-5.373l442.695-440.546c3.582-0.717 5.552-2.688 5.909-5.91 0.358-3.224 0.537-5.91 0.537-8.060s-0.537-4.298-1.611-6.446c-1.075-2.149-2.687-3.582-4.835-4.299l-76.29-70.917c-1.433-5.015-4.656-7.521-9.672-7.521h-7.521l-6.447 7.519zM614.452 454.983l51.575 49.427-420.129 413.683-17.192-17.192 385.746-445.918zM904.567 249.754v-11.82c0-10.028-4.656-15.043-13.969-15.043h-35.459c-42.264 0-83.095 8.954-122.493 26.863-37.966 17.191-65.902 41.547-83.811 73.065-17.909 41.548-14.686 77.364 9.671 107.45 14.326 23.64 36.892 35.459 67.694 35.459 10.745 0 21.311-1.97 31.697-5.91s20.058-8.954 29.013-15.043c8.954-6.089 17.013-12.535 24.176-19.341s12.894-13.432 17.192-19.878c5.73-7.163 10.207-15.58 13.431-25.251s6.268-19.521 9.133-29.549c0.717-1.433 1.075-3.582 1.075-6.447 4.298-17.192 9.85-32.951 16.655-47.278s18.445-29.369 34.921-45.129l1.074-2.148zM726.2 431.344c-15.76 0-29.012-7.521-39.758-22.565-10.028-12.178-14.506-24.355-13.431-36.533s4.119-23.997 9.133-35.459c13.61-22.922 35.817-41.726 66.619-56.411s64.47-22.385 101.003-23.102c-5.73 11.461-10.745 22.386-15.043 32.772s-8.238 20.594-11.82 30.622l-2.148 6.447c0 0-0.717 1.791-2.149 5.373v1.075l-1.075 2.149c-2.865 9.313-5.73 18.267-8.596 26.862-2.865 8.597-6.447 15.76-10.745 21.49-2.149 4.298-5.73 9.134-10.745 14.506-5.014 5.373-10.744 10.387-17.191 15.043s-13.611 8.775-21.49 12.357-15.401 5.373-22.565 5.373l0.001 0.001zM184.651 112.217c-9.313 0-13.969 5.372-13.969 16.117v276.148c0 1.433 0.358 3.761 1.075 6.984s2.866 5.193 6.447 5.909c1.433 1.434 3.224 2.149 5.373 2.149 2.865 0 5.015-0.896 6.447-2.686s2.865-3.402 4.298-4.835l257.88-273.998c2.149 0 3.939-1.434 5.373-4.299 2.148-3.582 1.074-8.596-3.225-15.043v-1.074h-1.075l-3.224-3.225c0 0-2.149-0.716-6.447-2.148l-258.953 0.001zM404.924 143.378l-205.23 220.272v-220.272h205.23zM893.822-29.617c3.582-3.582 5.553-6.985 5.91-10.208 0.358-3.224 0.537-6.268 0.537-9.134v-2.148l-1.075-1.075c-6.447-7.88-12.894-11.819-19.341-11.819l-856.378 4.298c-7.88 0-13.432 1.791-16.655 5.373s-4.835 7.163-4.835 10.744v926.22c0 3.582 1.611 6.806 4.835 9.671 3.223 2.865 6.984 4.298 11.282 4.298 1.433 0 2.687-0.358 3.761-1.075s4.477-3.94 10.208-9.671c3.582-3.582 7.701-7.88 12.357-12.894s10.208-10.745 16.655-17.192c11.461-12.178 25.43-27.042 41.906-44.592s35.817-37.429 58.023-59.635c36.533-38.683 79.513-84.527 128.94-137.536s106.017-113.539 169.771-181.592l105.301-111.747c0 0 33.31-35.459 99.93-106.376s95.988-102.258 88.108-94.020 15.938-17.191 71.454-76.29c55.516-59.098 71.813-76.469 48.89-52.112-22.922 24.355-16.117 17.192 20.416-21.49v0.002zM839.023-24.244l-109.599 120.344c-3.582-3.582-8.417-8.060-14.506-13.432-6.089-5.371-12.715-11.281-19.878-17.729-2.865-2.865-5.552-5.373-8.060-7.521-2.507-2.149-4.835-4.299-6.983-6.447l-22.565 23.639 46.204 46.204-104.227 113.897-48.354-48.354-25.788 26.863 47.278 48.353-104.228 109.6-13.431-13.432c0 0-6.268-5.909-18.804-17.729-3.582-2.865-6.806-5.552-9.671-8.060s-5.373-4.835-7.522-6.983l-25.788 27.937 53.726 45.129-106.375 113.898-52.651-48.354-23.639 24.714 50.502 49.428-104.227 113.896-50.502-51.575-26.863 27.937 51.576 51.576-147.207 154.727v-858.526h801.582z" />
<glyph unicode="&#xe925;" glyph-name="ac-plus" data-tags="ac-plus" d="M969.985 554.308q21.836 0 37.926-14.941 16.090-16.090 16.090-39.075v-106.882q0-22.985-16.090-37.926-16.090-16.090-37.926-16.090h-351.677v-349.378q0-24.135-14.941-39.075-16.090-14.941-36.777-14.941h-106.882q-24.135 0-39.075 14.941t-14.941 39.075v349.378h-351.677q-24.135 0-39.075 14.941-14.941 16.090-14.941 39.075v106.882q0 22.985 14.941 39.075 14.941 14.941 39.075 14.941h351.677v351.677q0 21.836 14.941 37.926t39.075 16.090h106.882q20.687 0 35.627-16.090 16.090-16.090 16.090-37.926v-351.677h351.677z" />
<glyph unicode="&#xe926;" glyph-name="ac-minus" data-tags="ac-minus" d="M972.857 555.969q22.73 0 36.368-15.911 14.775-15.911 14.775-38.642v-106.832q0-22.73-13.638-38.642-14.775-15.911-37.505-15.911h-920.577q-22.73 0-37.505 15.911t-14.775 38.642v106.832q0 22.73 14.775 38.642t37.505 15.911h920.577z" />
<glyph unicode="&#xe927;" glyph-name="ac-check-circle-thick" data-tags="ac-check-circle-thick" horiz-adv-x="1026" d="M512.999 960q106.001 0 199-40t163-109q70.001-70.001 110.001-163 40-94.001 40-200t-40-199q-40-94.001-109-163-70.001-70.001-163-110.001t-200-40q-106.001 0-199 40t-162 109q-70.001 70.001-110.001 163-41 94.001-41 200t40 199q41 94.001 110.001 163 70.001 70.001 163 110.001t199 40zM512.999-2.001q93 0 174 36 82.001 36 143 97t96 143 35 174-35 174-96 142.001q-61 61-142.001 96-82.001 36-175 36-92 0-173-35-82.001-36-143-97t-96-142.001q-36-82.001-36-174 0-93 35-175 36-82.001 97-143t142.001-96q82.001-36 174-36zM716.999 634.999q9 10.001 22.001 10.001 14.001 0 22.001-8 10.001-10.001 10.001-22.001 0-13-10.001-23l-318-322q0-1-1-2.001l-2.001-2.001q-10.001-10.001-22.001-10.001-13 0-23 10.001l-158 158q-10.001 10.001-10.001 22.001 0 13 10.001 23 9 9 22.001 9t22.001-9l136-136z" />
<glyph unicode="&#xe928;" glyph-name="ac-chevron-circle-left-thin" data-tags="ac-chevron-circle-left-thin" d="M512 960.001q106.207 0 199.389-40.079t162.317-109.213q70.137-70.137 110.215-163.319t40.079-199.389-40.079-199.389-109.213-162.317q-70.137-70.137-163.319-110.215t-199.389-40.079-199.389 40.079-162.317 109.213q-70.137 70.137-110.215 163.319t-40.079 199.389 40.079 199.389 109.213 162.317q70.137 70.137 163.319 110.215t199.389 40.079zM512-26.926q98.192 0 184.36 37.072 87.17 37.072 151.295 101.198 65.127 65.127 102.199 151.295 37.072 87.17 37.072 185.361t-37.072 184.36q-37.072 87.17-101.198 151.295-65.127 65.127-151.295 102.199-87.17 37.072-185.361 37.072t-184.36-37.072q-87.17-37.072-151.295-101.198-65.127-65.127-102.199-151.295-38.074-87.17-38.074-185.361t37.072-184.36q38.074-87.17 102.199-151.295 65.127-65.127 151.295-102.199 87.17-37.072 185.361-37.072zM615.202 715.524q3.006-4.008 3.006-8.016t-3.006-6.012l-262.512-262.512 250.489-248.485q2.004-4.008 2.004-8.016t-2.004-6.012l-14.028-15.029q-4.008-2.004-8.016-2.004t-7.014 2.004l-270.528 269.526q-2.004 3.006-2.004 7.014 0 5.009 2.004 7.014l283.554 285.557q4.008 2.004 8.016 2.004t6.012-2.004z" />
<glyph unicode="&#xe929;" glyph-name="ac-chevron-circle-right-thin" data-tags="ac-chevron-circle-right-thin" horiz-adv-x="1026" d="M513 960q106.001 0 199-40t162-109q70.001-70.001 110.001-163 41-94.001 41-200t-40-199q-41-94.001-110.001-163-70.001-70.001-163-110.001t-199-40q-107 0-200 40t-162 109q-70.001 70.001-110.001 163-40 94.001-40 200t40 199q40 94.001 109 163 70.001 70.001 163 110.001t200 40zM513-27.001q98.001 0 184 37 87 38.001 151 102.001 65 65 102.001 151 38.001 87 38.001 185t-37 185q-38.001 87-102.001 151-65 65-151 102.001-87 37-185 37-99 0-185-37-87-37-151-102.001-65-65-102.001-151-38.001-87-38.001-185t37-185q38.001-87 102.001-151 65-65 151-102.001 87-37 186-37zM721 464q2.001-4 2.001-8t-2.001-6.001l-284-284q-3-2.001-7-2.001-5 0-7 2.001l-14.001 15q-3 3-3 7 0 5 3 7l262 263-248 248q-2.001 3-2.001 7 0 5 2.001 7l14.001 14.001q4 3 8 3t7-3z" />
<glyph unicode="&#xe92a;" glyph-name="ac-chevron-circle-up-thin" data-tags="ac-chevron-circle-up-thin" horiz-adv-x="1026" d="M513 960q106.001 0 199-40t162-109q70.001-70.001 110.001-163 41-94.001 41-200t-40-199q-41-94.001-110.001-163-70.001-70.001-163-110.001t-199-40q-107 0-200 40t-162 109q-70.001 70.001-110.001 163-40 94.001-40 200t40 199q40 94.001 109 163 70.001 70.001 163 110.001t200 40zM513-27.001q98.001 0 184 37 87 38.001 151 102.001 65 65 102.001 151 38.001 87 38.001 185t-37 185q-38.001 87-102.001 151-65 65-151 102.001-87 37-185 37-99 0-185-37-87-37-151-102.001-65-65-102.001-151-38.001-87-38.001-185t37-185q38.001-87 102.001-151 65-65 151-102.001 87-37 186-37zM794 372.999q3-4 3-8t-3-7l-14.001-14.001q-4-2.001-8-2.001t-7 2.001l-262 262-248-248q-4-2.001-8-2.001t-6.001 2.001l-15 15q-2.001 3-2.001 7 0 5 2.001 7l269 269q4 2.001 8 2.001t6.001-2.001l15-14.001z" />
<glyph unicode="&#xe92b;" glyph-name="ac-chevron-circle-down-thin" data-tags="ac-chevron-circle-down-thin" d="M796.556 518.136q2.004-4.008 2.004-8.016t-2.004-7.014l-271.53-270.528q-4.008-2.004-8.016-2.004t-6.012 2.004l-283.554 283.554q-2.004 3.006-2.004 8.016 0 4.008 2.004 6.012l15.029 14.027q4.008 3.006 8.016 3.006t6.012-3.006l262.513-262.513 248.485 248.485q4.008 2.004 8.016 2.004t6.012-2.004zM512 959.999q106.207 0 199.389-40.078t162.317-109.213q70.137-70.137 110.215-163.319t40.078-199.389-40.078-199.389-109.213-162.317q-70.137-70.137-163.319-110.215t-199.389-40.078-199.389 40.078-162.317 109.213q-70.137 70.137-110.215 163.319t-40.078 199.389 40.078 199.389 109.213 162.317q70.137 70.137 163.319 110.215t199.389 40.078zM512-26.929q98.192 0 184.36 37.072 87.17 37.072 151.295 101.198 65.127 65.127 102.2 151.295 37.072 87.17 37.072 185.362t-37.072 184.36q-37.072 87.17-101.198 151.295-65.127 65.127-151.295 102.2-87.17 37.072-185.362 37.072t-184.36-37.072q-87.17-37.072-151.295-101.198-65.127-65.127-102.2-151.295-38.074-87.17-38.074-185.362t37.072-184.36q38.074-87.17 102.2-151.295 65.127-65.127 151.295-102.2 87.17-37.072 185.362-37.072z" />
<glyph unicode="&#xe92c;" glyph-name="ac-linkedin" data-tags="ac-linkedin" d="M125.658 960q53.073 0 88.976-35.902 35.902-37.463 35.902-88.976 0-53.073-35.902-88.976t-88.976-35.902-88.976 35.902-35.902 88.976q0 51.512 35.902 87.415 35.902 37.463 88.976 37.463zM21.073 619.707h213.854v-683.707h-213.854v683.707zM759.414 633.756q167.024 0 215.415-92.098t46.829-231.024v-371.512h-212.293v323.122q0 59.317-18.732 123.317-18.732 65.561-104.585 65.561-87.415 0-113.951-51.512-28.098-51.512-28.098-118.634v-338.732h-210.732v677.463h210.732v-95.22h4.683q23.415 40.585 76.488 74.927 54.634 34.341 134.244 34.341z" />
<glyph unicode="&#xe92d;" glyph-name="ac-anystock" data-tags="ac-anystock" d="M125.145 831.379q37.742-7.946 60.586-36.749 23.837-28.803 24.83-66.545v-278.099q0-37.742-23.837-66.545-24.83-28.803-60.586-35.756v-391.325h-41.715v389.338q-35.756 5.959-59.593 34.762-24.83 29.796-24.83 67.538v280.085q0 37.742 23.837 66.545 24.83 28.803 61.579 36.749v108.26h39.728v-108.26zM169.839 728.085q0 25.823-17.878 43.701-18.871 18.871-44.694 18.871-26.817 0-44.694-17.878-18.871-18.871-18.871-44.694v-278.099q0-25.823 17.878-43.701 18.871-18.871 45.688-18.871 25.823 0 43.701 17.878 18.871 18.871 18.871 44.694v278.099zM533.354 587.050q35.756-6.952 59.593-34.762 24.83-28.803 24.83-68.532v-280.085q0-37.742-23.837-66.545-24.83-28.803-60.586-35.756v-144.016h-41.715v145.009q-36.749 6.952-60.586 35.756t-23.837 66.545v280.085q0 37.742 23.837 66.545t60.586 35.756v352.59h41.715v-352.59zM576.062 483.756q0 25.823-18.871 44.694-18.871 17.878-44.694 17.878t-43.701-17.878q-18.871-18.871-18.871-44.694v-278.099q0-25.823 17.878-43.701 18.871-18.871 44.694-18.871t44.694 17.878q18.871 18.871 18.871 44.694v278.099zM939.577 730.072q35.756-6.952 59.593-35.756 23.837-29.796 24.83-67.538v-278.099q0-38.735-23.837-67.538-24.83-28.803-60.586-35.756v-288.031h-41.715v287.038q-35.756 6.952-59.593 35.756-24.83 28.803-24.83 67.538v279.092q0 38.735 23.837 67.538 24.83 28.803 60.586 35.756v209.567h41.715v-209.567zM983.279 626.778q0 25.823-17.878 44.694-18.871 18.871-44.694 18.871t-44.694-18.871-18.871-44.694v-278.099q0-25.823 18.871-44.694t44.694-18.871 43.701 18.871q18.871 18.871 18.871 44.694v278.099z" />
<glyph unicode="&#xe92e;" glyph-name="ac-anygantt" data-tags="ac-anygantt" d="M837.359 414.203q77.683 0 132.162-54.479 54.479-55.488 54.479-134.179 0-76.674-54.479-131.153-55.488-54.479-133.17-54.479h-327.882q-71.63 0-124.091 47.417t-60.532 116.020h-13.115q-17.151 0-37.328 3.027-21.186 4.035-43.381 14.124-21.186 9.080-41.364 27.239-20.177 19.168-33.293 47.417-9.080 20.177-13.115 44.39-5.044 24.213-5.044 53.47v96.851q-59.523 17.151-97.86 65.576-39.346 48.426-39.346 112.993 0 77.683 54.479 132.162 55.488 54.479 132.162 55.488h530.664q76.674 0 131.153-54.479 55.488-54.479 55.488-130.144 0-76.674-54.479-130.144-55.488-54.479-132.162-54.479h-539.744v-91.807q0-26.231 4.035-46.408t10.089-34.301q7.062-16.142 16.142-26.231t18.16-17.151q19.168-14.124 43.381-19.168 25.222-5.044 42.372-5.044h13.115q5.044 71.63 58.514 119.046 53.47 48.426 126.108 48.426h327.882zM40.354 668.437q0-28.248 11.098-55.488 12.106-27.239 32.284-47.417 19.168-20.177 45.399-31.275 27.239-11.098 57.505-11.098h530.664q30.266 0 56.497 11.098 27.239 11.098 46.408 31.275 20.177 20.177 31.275 46.408 12.106 26.231 12.106 56.497t-12.106 56.497q-12.106 27.239-31.275 46.408-19.168 20.177-45.399 31.275-27.239 11.098-57.505 11.098h-530.664q-31.275 0-57.505-11.098t-45.399-31.275q-20.177-20.177-31.275-46.408-12.106-26.231-12.106-56.497zM941.272 124.658q19.168 21.186 30.266 47.417 12.106 26.231 13.115 56.497 0 30.266-12.106 56.497-12.106 27.239-31.275 46.408t-46.408 30.266q-27.239 12.106-57.505 12.106h-326.873q-30.266 0-56.497-11.098-27.239-12.106-47.417-31.275-20.177-20.177-31.275-46.408-12.106-26.231-12.106-56.497t11.098-56.497q12.106-26.231 31.275-47.417 20.177-19.168 46.408-30.266 27.239-12.106 57.505-12.106h327.882q30.266 0 57.505 11.098 27.239 12.106 46.408 31.275z" />
<glyph unicode="&#xe92f;" glyph-name="ac-anymap" data-tags="ac-anymap" horiz-adv-x="1017" d="M508.998 960c69.998 0 135.664-13.333 197.001-40s115.002-63.001 160.996-109.004c46.002-46.665 82.337-100.996 109.003-162.996 27.334-62.665 40.999-129.332 40.999-200.001 0-70.667-13.335-137.005-39.999-199.003-26.667-62.665-63.001-116.998-109.003-162.998-46.004-46.664-99.669-83.333-160.996-110-62.003-26.665-128.001-39.998-197.998-39.998-70.67 0-136.666 13.333-197.996 39.998-62.002 26.667-116.002 63.001-162.003 109.004-46.002 46.665-82.336 100.999-109.003 162.996-26.666 62.665-39.999 129.331-39.999 200 0 70.67 13.333 137.005 39.999 199.006 26.667 62.663 63 116.997 109.003 162.996 46.003 46.665 99.667 83.331 160.998 109.999 62.001 26.667 128.336 40 199.002 40h-0.003v0.001zM834.998 117.001c21.335 21.334 40.331 44.332 56.997 69.003 16.665 25.331 30.666 51.997 42.003 80 12 28.002 21.001 57.002 26.997 87.005 6.668 30.664 10.001 62.331 10.001 95.004 0 32-2.998 63.333-8.998 93.996-6.667 30.002-15.667 59.003-26.995 87.004-11.332 28-25.329 54.668-42.004 80.001-16.671 25.331-35.337 48.665-55.999 69.998-21.334 21.332-44.334 40.331-69.001 56.997-25.332 17.335-51.664 32.003-79.005 43.999-28.001 12.002-57.003 21.002-87.005 26.999-29.999 6.667-61.002 10.001-93.002 10.001-31.998 0-63.332-2.999-93.999-8.996-30.664-6.671-59.664-16.003-87.001-28.001-28.002-12.002-54.338-26.334-79.006-42.999-24.669-17.335-47.335-36.667-67.999-58.001-21.332-21.332-40.331-44.334-56.997-69.004-17.335-25.331-31.669-51.998-42.998-79.998-12.002-28.001-21.001-57.004-26.997-87.005-5.998-30.665-8.996-62.331-8.996-95.004 0-32.671 2.998-64.003 8.996-93.996 5.999-30.664 14.666-59.997 26.004-87.999 12.002-28.002 26.334-54.338 42.998-79.003 16.666-25.335 35.333-48.665 56-69.998 21.334-21.335 44.333-40.331 69.002-56.998 24.669-17.335 50.667-32.001 77.996-43.999 28.004-12.002 57.004-21.002 87.005-26.996 30.665-6.668 61.997-10.002 93.996-10.002s63.001 2.998 93.005 8.996c30.664 6.67 59.997 16.002 87.999 28 28.001 11.996 54.337 26.33 79.003 42.999 24.67 17.332 47.337 36.665 68.001 57.999v0 0zM435 514.001l362.995 234.998-194.997-386.998-362.996-235.999 191.998 383.003 2.999 4.996zM489.005 495.998l90.004-82.998 103.999 208-194.003-125.002zM459 461.996l-104.001-208.002 194.002 127.005-90.001 80.997z" />
<glyph unicode="&#xe930;" glyph-name="ac-anymap2" data-tags="ac-anymap2" horiz-adv-x="851" d="M851.242 447.581c0-48.642-7.548-95.047-22.644-139.216-15.654-44.17-37.18-84.146-64.576-119.928-27.397-36.343-59.825-67.652-97.284-93.93-37.459-26.279-78.554-45.568-123.283-57.869l-14.255 34.384c32.427 9.504 63.179 22.643 92.252 39.415 29.073 17.333 55.631 37.741 79.672 61.222 17.333 17.893 32.987 37.181 46.964 57.869s25.718 42.773 35.225 66.255c10.062 23.483 17.609 48.083 22.642 73.804 5.592 25.717 8.386 52.274 8.386 79.672 0 26.837-2.516 53.114-7.547 78.833-5.592 25.16-13.139 49.48-22.642 72.963-10.063 23.482-22.086 45.845-36.064 67.092s-29.632 40.814-46.964 58.705c-17.891 17.333-37.18 32.988-57.869 46.964-20.686 14.538-42.49 26.838-65.415 36.901-23.481 10.062-47.802 17.611-72.963 22.642-25.16 5.593-51.157 8.388-77.996 8.388l62.9-62.899-27.675-27.675-99.805 99.802 99.801 109.024 25.998-25.161-53.676-59.544c58.147-1.119 112.38-13.141 162.701-36.064 50.88-22.922 95.050-53.673 132.51-92.253s67.093-83.586 88.897-135.023c21.805-51.436 32.709-106.23 32.709-164.379l-0.001 0.005zM669.251 699.18l-166.053-323.725-301.916-197.085 161.021 320.368 1.679 5.871 305.27 194.571zM572.806 591.832l-161.861-105.673 75.478-68.77 86.383 174.442zM296.886 285.722l161.862 105.671-75.479 68.77-86.383-174.441zM37.742 447.581c0-26.837 2.516-52.836 7.548-77.994 5.591-25.72 13.14-50.32 22.643-73.804 10.062-23.481 22.084-45.566 36.063-66.255 13.978-21.246 29.633-41.094 46.964-59.544 17.333-16.773 36.063-32.148 56.191-46.127s41.374-25.719 63.738-35.223c22.923-10.063 46.685-17.891 71.284-23.482s50.041-8.387 76.319-8.387l-56.191 62.898 25.998 25.998 99.803-109.023-99.803-100.639-25.998 25.159 57.868 57.868c-58.146 1.119-112.659 12.859-163.538 35.224-50.88 22.922-95.328 53.674-133.347 92.253-38.020 39.136-67.932 84.424-89.737 135.86-22.364 52-33.547 107.35-33.547 166.056 0 48.642 7.548 95.048 22.642 139.216 15.655 44.17 37.181 84.146 64.577 119.928 27.396 36.342 59.825 67.651 97.284 93.931 38.020 26.276 79.673 45.845 124.96 58.703l14.255-35.223c-32.428-9.504-63.179-22.642-92.252-39.416-29.074-17.333-55.631-37.741-79.672-61.222-17.89-17.892-33.825-37.181-47.802-57.868-13.978-21.246-25.72-43.611-35.223-67.092-10.063-23.482-17.611-47.803-22.643-72.965-5.591-25.718-8.386-51.994-8.386-78.833h0.004z" />
<glyph unicode="&#xe931;" glyph-name="ac-api" data-tags="ac-api" d="M51.695 634.406q6.959 6.959 18.889 9.942 11.93 3.977 26.843 3.977h33.802v-41.755h-7.953q-5.965 0-10.936-0.994-4.971-1.988-7.953-3.977-2.983-2.983-3.977-8.948-1.988-5.965-1.988-15.907 0-7.953 0.994-16.901t0.994-17.895q1.988-6.959 1.988-16.901 0.994-9.942 0.994-20.878 0-13.918-1.988-22.866-2.983-9.942-6.959-14.913-4.971-5.965-11.93-8.948-6.959-3.977-13.918-4.971v-1.988q8.948-3.977 15.907-6.959 7.953-3.977 11.93-9.942 4.971-5.965 6.959-15.907 2.983-9.942 2.983-23.86 0-10.936-0.994-19.883-0.994-9.942-0.994-17.895-1.988-8.948-1.988-17.895-0.994-8.948-0.994-16.901 0-9.942 0.994-15.907 1.988-5.965 4.971-8.948 1.988-1.988 5.965-2.983 4.971-1.988 10.936-1.988h7.953v-41.755h-33.802q-6.959 0-13.918 0.994t-12.924 1.988q-5.965 1.988-10.936 4.971-4.971 3.977-8.948 6.959t-5.965 7.953q-2.983 5.965-4.971 11.93-0.994 5.965-1.988 13.918-0.994 8.948-0.994 18.889v19.883q0 4.971 0.994 8.948t0.994 8.948q0 3.977 0.994 7.953 0.994 4.971 0.994 8.948v19.883q0 5.965-1.988 11.93-2.983 5.965-6.959 9.942-4.971 4.971-12.924 7.953-8.948 2.983-19.883 2.983v47.72q11.93 0 19.883 2.983t12.924 7.953q3.977 3.977 5.965 9.942 2.983 5.965 2.983 11.93v19.883q0 3.977-0.994 8.948-0.994 3.977-0.994 7.953t-0.994 8.948q-0.994 3.977-0.994 8.948v19.883q0 19.883 2.983 32.808 3.977 13.918 10.936 21.872zM990.196 483.292q5.965-5.965 12.924-8.948 7.953-2.983 20.878-5.965v-46.726q-10.936 0-18.889-2.983t-12.924-7.953q-3.977-3.977-5.965-9.942-2.983-5.965-2.983-11.93v-19.883q0-3.977 0.994-7.953 0.994-4.971 0.994-8.948t0.994-7.953q0.994-4.971 0.994-9.942v-37.779q-0.994-8.948-2.983-14.913-0.994-5.965-3.977-10.936-2.983-5.965-6.959-8.948-3.977-3.977-7.953-6.959-4.971-2.983-12.924-4.971-5.965 0-11.93-0.994-6.959-1.988-14.913-1.988h-33.802v41.755h7.953q5.965 0 9.942 0.994 4.971 1.988 7.953 3.977 1.988 2.983 2.983 8.948 1.988 5.965 1.988 15.907 0 7.953-0.994 16.901t-0.994 17.895q-1.988 6.959-1.988 16.901v20.878q0 13.918 1.988 22.866 1.988 9.942 6.959 16.901 3.977 5.965 10.936 9.942 7.953 3.977 16.901 5.965v2.983q-8.948 2.983-15.907 6.959-7.953 2.983-11.93 8.948-4.971 6.959-6.959 16.901-1.988 8.948-1.988 22.866 0 10.936 0.994 20.878 0.994 8.948 0.994 16.901 0.994 8.948 0.994 17.895 0.994 8.948 0.994 16.901 0 9.942-0.994 15.907-1.988 5.965-3.977 8.948-2.983 1.988-6.959 2.983-4.971 1.988-10.936 1.988h-7.953v41.755h33.802q15.907 0 27.837-3.977t17.895-12.924q6.959-6.959 9.942-19.883 3.977-12.924 3.977-32.808v-19.883q0-4.971-0.994-8.948t-0.994-8.948q0-3.977-0.994-7.953-0.994-4.971-0.994-8.948v-19.883q0-5.965 1.988-11.93 2.983-5.965 6.959-9.942zM243.571 621.482h97.429l92.458-303.223h-85.499l-13.918 62.633h-85.499l-13.918-62.633h-83.511zM263.454 443.525v0.994h57.662l-5.965 20.878q-1.988 10.936-4.971 22.866t-5.965 25.849q-1.988 11.93-4.971 23.86-3.977 10.936-5.965 23.86h-1.988q-4.971-11.93-6.959-23.86-2.983-11.93-4.971-24.854-2.983-13.918-5.965-25.849t-5.965-22.866l-4.971-20.878h0.994zM667.089 599.61q6.959-5.965 13.918-13.918t11.93-15.907q4.971-9.942 6.959-21.872 2.983-11.93 2.983-25.849 0-14.913-1.988-26.843-2.983-11.93-7.953-20.878-5.965-10.936-12.924-19.883t-14.913-14.913-16.901-10.936q-9.942-4.971-20.878-8.948-10.936-2.983-21.872-3.977-11.93-1.988-23.86-1.988h-37.779v-95.441h-79.534v303.223h119.301q10.936 0 22.866-0.994 11.93-1.988 22.866-3.977 10.936-3.977 19.883-6.959 8.948-3.977 17.895-9.942zM612.41 489.257q6.959 4.971 8.948 12.924 2.983 7.953 3.977 18.889 0 8.948-2.983 16.901-2.983 6.959-9.942 10.936-4.971 3.977-13.918 6.959-9.942 1.988-19.883 1.988h-34.796v-79.534h34.796q10.936 0 18.889 2.983 8.948 1.988 14.913 7.953zM752.588 621.482h80.528v-303.223h-80.528v303.223z" />
<glyph unicode="&#xe932;" glyph-name="ac-javascript" data-tags="ac-javascript" horiz-adv-x="1026" d="M513.001 959.997q105.999 0 198.999-39.999t162.999-108.999q69.999-69.999 110.001-162.999 39.999-93.999 39.999-200t-39.999-198.999q-39.999-93.999-108.999-162.999-69.999-69.999-162.999-110.001t-200-39.999q-105.999 0-198.999 39.999t-162 108.999q-69.999 69.999-110.001 162.999-41.001 93.999-41.001 200t39.999 198.999q41.001 93.999 110.001 162.999 69.999 69.999 162.999 110.001t198.999 39.999zM513.001-2.002q93 0 174 36 81.999 36 143.001 96.999t96 143.001 35.001 174-35.001 174-96 141.999q-60.999 60.999-141.999 96-81.999 36-174.999 36-92.001 0-173-35.001-81.999-36-143.001-96.999t-96-141.999q-36-81.999-36-174 0-93 35.001-174.999 36-81.999 96.999-143.001t141.999-96q81.999-36 174-36zM235.001 621.997q5.001 2.001 11.001 2.001h35.001v-24h-9q-9 0-14.001-2.001t-6.999-6-3-9.999q-2.001-6-2.001-15.999 0-9 0.999-17.001 0.999-9 0.999-18 0.999-8.001 0.999-17.001v-20.001q0-12-0.999-20.001t-5.001-12.999-9-8.001q-5.001-3.999-12-6.999v-0.999q6.999-3 12-6 5.001-3.999 9-9 3.999-3.999 5.001-12 0.999-9 0.999-20.001v-18q-0.999-9.999-0.999-18-0.999-9-0.999-18-0.999-9-0.999-18t0.999-15q2.001-6.999 3.999-9.999 3.999-3.999 9-6t12-2.001h9v-26.001h-21.999q-6 0-12 0.999t-9.999 2.001q-5.001 2.001-9 3.999t-6.999 6q-3.999 3.999-6 8.001-3 3.999-3.999 9.999-0.999 3.999-2.001 11.001t-0.999 15.999v29.001q0.999 3.999 0.999 9t0.999 9 0.999 9v24q-0.999 3-3 6-0.999 3-2.001 5.001l-9 9-6.999 3.999q-3 0.999-8.001 2.001t-9 0.999v29.001q6 0 9.999 0.999t6.999 2.001q3.999 2.001 6 3.999 3 2.001 5.001 3.999 3 2.001 3.999 5.001 2.001 2.001 3 5.001 0.999 2.001 0.999 5.001v33.999l-0.999 9q0 3-0.999 8.001-0.999 3.999-0.999 9v21q0 8.001 0.999 14.001 0.999 6.999 2.001 12.999 2.001 6 3.999 9.999t6 8.001q3.999 3 6.999 5.001 3.999 3 9 3.999zM416.002 601.997h60.999v-180q0-9-0.999-18-2.001-9.999-3.999-18-3-9-6-15.999-3.999-8.001-9.999-15t-12-12q-6.999-5.001-15-9-9-3-18-5.001-9.999-3-21-3-15 0-27.999 3-14.001 3.999-24.999 9.999-9.999 6-18.999 15-9 9.999-15.999 21.999l42 30q3-6.999 8.001-12t9-8.001q5.001-3.999 9.999-5.001 6-2.001 11.001-2.001 9 0 15 2.001 6 3 11.001 8.001 3 5.001 5.001 14.001 3 9 3 23.001v176zM672.001 482.998q12-6 21.999-12 11.001-6 21-12.999 6.999-9 9.999-20.001 3.999-12 3.999-27 0-8.001-0.999-15.999-0.999-9-5.001-15.999-2.001-8.001-6.999-14.001-6-6.999-12-12.999-6-5.001-14.001-9-9-5.001-18-9-9.999-3-20.001-3.999-11.001-2.001-23.001-2.001-14.001 0-27 2.001-12.999 3-26.001 8.001-12.999 3.999-24.999 11.001-12 8.001-23.001 17.001l35.001 42q6.999-6 14.001-11.001 8.001-6 18-9.999 9.999-3 18-5.001 9-3 17.001-3 9.999 0 17.001 0.999 6.999 2.001 12 6 5.001 3 6.999 8.001 3 5.001 3 11.001 0 3-0.999 6t-3 5.001q-0.999 2.001-3 3.999-2.001 3-5.001 3.999-2.001 0.999-5.001 3-3.999 2.001-6.999 3-3.999 2.001-8.001 3t-8.001 3.999l-36 14.001-11.001 6-9 5.001q-5.001 3.999-9 8.001-5.001 3.999-9 8.001-5.001 5.001-6.999 9.999l-6 11.001q-2.001 6-3 12.999-2.001 6.999-2.001 14.001 0 9 0.999 17.001 2.001 8.001 6 15 2.001 8.001 6.999 14.001l12 12t14.001 9.999l15.999 8.001q9 3 18 3.999 9.999 2.001 21 2.001 12 0 23.001-2.001 11.001-3 23.001-8.001 11.001-3.999 21-11.001 11.001-6.999 18.999-15.999l-32.001-38.001q-6.999 5.001-12.999 9-6.999 3.999-14.001 6.999-6 2.001-12.999 3.999-6.999 0.999-15.999 0.999-8.001 0-14.001-0.999-6.999-2.001-11.001-6-5.001-2.001-6.999-6-3-5.001-3-11.001 0-3.999 2.001-6.999l3-6q0.999-3 3-5.001t5.001-3q2.001-0.999 5.001-3l8.001-3.999q3-0.999 6.999-2.001 3.999-2.001 9-3.999zM845.001 461.998q2.001-0.999 6-0.999 5.001-0.999 11.001-2.001v-29.001q-6 0-9.999-0.999t-6.999-2.001l-6-3q-3-2.001-6-5.001-2.001-2.001-3-3.999-2.001-3-3-5.001-0.999-3-0.999-6-0.999-3-0.999-6v-18.999l0.999-9q0.999-9 0.999-8.001t0.999-8.001l0.999-9.999v-21q0-8.001-0.999-14.001-0.999-6.999-3-12.999-0.999-6-3-9.999l-6-8.001q-3.999-3-6.999-5.001-3.999-3-9-3.999t-11.001-2.001-12-0.999h-21.999v24.999h9.999q8.001 0 12.999 2.001 5.001 3 6.999 6 3 3.999 3.999 9.999t0.999 15.999v18q-0.999 9-0.999 17.001-2.001 8.001-2.001 17.001v20.001q0 11.001 0.999 18.999 2.001 8.001 5.001 12.999 3.999 5.001 9 9 5.001 3 12 5.001v2.001q-6.999 2.001-12 6-5.001 3-9 8.001-3 6-3.999 15-2.001 8.001-2.001 18.999 0 9 0.999 18.999 0.999 9 0.999 18 0.999 8.001 0.999 17.001v18l-0.999 15q-0.999 15.999-3.999 9.999-3 3.999-8.001 6t-12 2.001h-9.999v26.001h35.001q5.001-0.999 9.999-3 5.001-0.999 8.001-3 3.999-3 8.001-6.999 3-3 5.001-6.999 3-3.999 3.999-9.999 2.001-5.001 3-12t0.999-15.999v-20.001q0-5.001-0.999-9t-0.999-9-0.999-9-0.999-9v-24q0.999-3.999 2.001-6l2.001-3.999 3.999-6q3-2.001 5.001-3.999 3-2.001 6.999-3.999z" />
<glyph unicode="&#xe933;" glyph-name="ac-globe" data-tags="ac-globe" horiz-adv-x="1026" d="M1025.999 448.001q0-102-37-192-38-90-103-159-66-69-153-111-88-42-189-48-4-2.001-7-2.001h-23q-107 0-200 40-94 41-163 110-70 70-110 163-41 93-41 199t40 199q41 93 110 162 70 70 163 110 94 41 201 41h14.001q4 0 8-1t8-1q101-6.001 188-48 88-42 153-111 66-69 103-159 38-90 38-192zM930.999 283.001q15 39 23 80 8 42 9 85 0 46-9 90-9 43-26 83l11-35q-2.001 0-36-9-35-10.001-109-19 3-26 4-53 2.001-28 2.001-57 0-36-2.001-71-3-36-8-68 59-7 93-14.001 35-8 48-12zM286 448.001q0-35 3-68 3-34 9-66 38 3 83 5 46 3 99 3v222q-55 1-102 3-47 1-85 5-4-25-5-51-2.001-27-2.001-53zM543.999 606.001q52 2.001 96 4t80 4q-11 55-29 102t-41 83-50 60-56 32v-285zM479.999 891.001q-29-9-55-33-27-25-50-60-23-36-41-82-19-47-30-100 37-4 80-6.001 44-2.001 96-2.001v282.999zM479.999 259.001q-49-1-91-2.001-43-2.001-79-6.001 13-48 31-89t40-73q22-33 47-54 25-22 52-30v254zM543.999 5.001q28 8 53 29t47 53q22 33 39 75 18 42 31 91-36 2.001-78 4-43 2.001-92 2.001v-254zM543.999 323.001q54-1 99-3t82-5q6.001 31 8 64 3 34 3 69 0 26-1 53-2.001 26-5 51-39-4-85-6.001t-101-2.001v-221zM914.999 646.001q-35 71-93 126t-131 87q31-44 55-104 25-61 38-133 61 8 92 15 32 7 39 9zM359.999 869.001q-41-15-78-37-38-23-70-52-33-29-59-64t-44-74q13-3 46-9t87-12q18 77 48 140t70 108zM84.999 582.001q-11-31-16-65t-5-69q0-43 8-83 8-41 22-79 16 4 51 10.001 35 7 90 13-6.001 33-9 68-4 35-4 71 0 29 2.001 57 3 27 6.001 53-64 8-100 15t-45 9zM122 227.001q19-34 44-64 26-31 56-56 31-26 65-46t71-34q-34 41-63 96-29 56-47 123-46-4-77-9-31-6.001-49-10.001zM690.999 37.001q67 29 121 77 54 49 90 110-14.001 4-44 9-31 6.001-79 12-14.001-63-36-116-23-53-52-92z" />
<glyph unicode="&#xe934;" glyph-name="ac-charts-many" data-tags="ac-charts-many" horiz-adv-x="1026" d="M412 394l-279.999 155 272 171zM364 464.001l-3 178-143-96zM409 352q56 0 96-40t40-96-40-96-96-40q-57 0-96 40-40 40-40 96t39 96q40 40 97 40zM409 115.001q40 0 70 29 30 30 30 72t-29 71q-29 30-71 30t-71-29q-30-30-30-72t29-71q30-30 72-30zM896.999 654.001l-130-333.999-333.999 130 129 333.999zM841 630.001l-255 100-99-255 254-99zM513 960q105 0 198-40 94-40 163-109 70-70 110-163 41-94 41-200t-40-199q-41-94-110-163-70-70-163-110t-199-40q-107 0-200 40t-162 109q-70 70-110 163-40 94-40 200t40 199q40 94 109 163 70 70 163 110t200 40zM513-1.999q92 0 173 36 82 36 143 97t96 143q36 82 36 174t-35 174q-36 82-97 142-61 61-142 96-82 36-174 36-93 0-174-35-82-36-143-97t-96-142q-35-82-35-174 0-93 35-175t96-143 142-96q82-36 175-36z" />
<glyph unicode="&#xe935;" glyph-name="ac-bars" data-tags="ac-bars" d="M1002.927 201.258h-980.748c-5.914 0-11.089-2.218-15.525-6.654s-6.654-9.61-6.654-15.525v-206.264c0-5.914 2.218-11.089 6.654-15.525s9.611-6.654 15.525-6.654h980.748c5.915 0 10.905 2.218 14.973 6.654 4.065 4.436 6.1 9.611 6.1 15.525v206.264c0 5.915-2.034 11.089-6.1 15.525-4.069 4.436-9.058 6.654-14.973 6.654zM1017.9 938.709c-4.065 4.436-9.056 6.654-14.972 6.654h-980.749c-5.914 0-11.089-2.218-15.525-6.654s-6.654-9.61-6.654-15.525v-206.264c0-6.654 2.218-12.014 6.654-16.081s9.611-6.1 15.525-6.1h980.749c14.046 0 21.070 7.393 21.070 22.179v206.266c0.002 5.915-2.029 11.089-6.098 15.525zM1002.927 572.755h-980.748c-5.914 0-11.089-2.218-15.525-6.654s-6.654-9.61-6.654-15.525v-206.264c0-5.914 2.218-11.089 6.654-15.525s9.611-6.654 15.525-6.654h980.748c5.915 0 10.905 2.218 14.973 6.654 4.065 4.436 6.1 9.611 6.1 15.525v206.264c0 5.915-2.034 11.089-6.1 15.525-4.069 4.436-9.058 6.654-14.973 6.654z" />
<glyph unicode="&#xe936;" glyph-name="ac-search" data-tags="ac-search" horiz-adv-x="1026" d="M968.165-64.001l-289.697 287.686q-53.312-43.253-119.701-67.395-67.395-24.141-140.825-24.141-86.507 0-161.949 32.189-76.448 33.194-132.778 88.519-57.336 56.33-89.525 131.772-33.194 75.442-33.194 160.943 0 86.507 32.189 160.943 33.194 75.442 89.525 131.772 57.336 56.33 132.778 88.519 76.448 33.194 162.955 33.194 85.501 0 160.943-32.189 76.448-33.194 132.778-89.525 57.336-56.33 89.525-130.766 32.189-75.442 31.183-161.949 0-75.442-25.147-142.837-26.153-68.401-71.418-122.719l289.697-287.686zM417.941 241.79q62.365 0 117.69 24.141t96.566 65.383q42.248 41.242 66.389 96.566 24.141 54.318 25.147 116.684 0 62.365-24.141 117.69t-65.383 95.56q-42.248 41.242-97.572 65.383t-118.695 24.141-118.695-24.141q-56.33-24.141-97.572-64.377-42.248-41.242-65.383-96.566-24.141-55.324-24.141-117.69 0-63.371 23.136-117.69 24.141-55.324 65.383-96.566 42.248-41.242 97.572-64.377 56.33-24.141 119.701-24.141z" />
<glyph unicode="&#xe937;" glyph-name="ac-star-4" data-tags="ac-star-4" horiz-adv-x="889" d="M755.019 447.998l134.172-255.463-289.811-12.881-154.566-243.656-154.566 243.657-287.665 12.88 134.172 255.463-134.172 256.538 287.665 12.881 154.566 242.583 154.566-242.583 289.811-12.881-134.172-256.538zM565.033 240.838l221.114 10.733-101.971 196.429 101.971 197.501-221.114 9.66-120.219 187.841-118.070-187.841-222.189-9.66 101.97-197.501-101.971-196.428 222.189-10.733 118.070-187.842 120.22 187.841z" />
<glyph unicode="&#xe938;" glyph-name="ac-triangle-right" data-tags="ac-triangle-right" horiz-adv-x="928" d="M0.875 960v-1024l924.385 513.071-924.385 510.929zM64.072 851.816l729.439-402.745-729.439-404.887v807.632z" />
<glyph unicode="&#xe939;" glyph-name="ac-position-left" data-tags="ac-position-left" d="M114.667 904v-912h-114.667v912h114.667zM456 221.333l-229.333 226.667 229.333 226.667v-170.667h568v-112h-568v-170.667z" />
<glyph unicode="&#xe93a;" glyph-name="ac-position-right" data-tags="ac-position-right" d="M909.333-8v912h114.667v-912h-114.667zM568 674.667l229.333-226.667-229.333-226.667v170.667h-568v112h568v170.667z" />
<glyph unicode="&#xe93b;" glyph-name="ac-question-circle" data-tags="ac-question-circle" d="M597.25 128.436v128.623q0 8.974-5.982 13.959-5.982 5.982-15.953 5.982h-127.626q-8.974 0-14.956-4.985-5.982-5.982-5.982-14.956v-128.623q0-9.971 5.982-14.956 5.982-5.982 14.956-5.982h127.626q9.971 0 15.953 4.985 5.982 5.982 5.982 15.953zM767.75 575.128q0 60.822-36.892 109.679-36.892 49.854-91.731 76.775-55.836 26.921-113.667 26.921-161.527 0-247.276-140.588-10.968-16.95 4.985-28.915l87.743-65.807q4.985-4.985 13.959-4.985t16.95 8.974q33.901 44.869 55.836 60.822 23.93 16.95 57.831 16.95 31.907 0 56.833-17.947t24.927-39.883q0-23.93-12.962-39.883t-45.866-29.912q-41.877-18.944-76.775-57.831t-34.898-84.752v-22.933q0-9.971 5.982-14.956 5.982-5.982 14.956-5.982h127.626q9.971 0 15.953 4.985 5.982 5.982 5.982 15.953 0 11.965 13.959 31.907 13.959 20.939 36.892 33.901 21.936 12.962 32.904 18.944 11.965 5.982 30.909 22.933t28.915 32.904q10.968 14.956 18.944 39.883t7.977 52.845zM955.201 703.751q68.798-116.658 68.798-255.252 0-139.591-67.801-257.246-68.798-118.652-186.454-186.454-118.652-68.798-257.246-68.798-139.591 0-257.246 67.801-118.652 68.798-186.454 186.454-68.798 118.652-68.798 258.243 0 138.594 67.801 256.249 68.798 118.652 186.454 186.454 118.652 68.798 257.246 68.798 139.591 0 257.246-67.801 118.652-68.798 186.454-188.448z" />
<glyph unicode="&#xe93c;" glyph-name="ac-question-circle-o" data-tags="ac-question-circle-o" d="M587 246v-107q0-9-6-15-7-7-15-7h-107q-9 0-15 6-7 7-7 16v107q0 9 6 15 7 6 16 6h107q8 0 14-6 7-6 7-15zM758 576q0-34-10-60t-30-45q-21-20-35-30-15-10-41-24-20-12-30-19t-17-16q-8-10-8-19v-22q0-9-6-15-7-6-15-6h-107q-9 0-15 6-7 6-7 15v46q0 23 7 43 8 20 16 32 9 12 26 24 17 11 27 17 11 5 30 13 36 17 50 29 15 12 15 32 0 29-29 48t-63 19q-38 0-64-17-19-14-53-55-6-9-16-9-8 0-14 4l-71 55q-7 5-8 13-2 9 3 16 81 128 232 128 86 0 159-59 74-60 74-144zM677 841q-78 34-165 34t-166-34-135-91q-57-57-91-136t-34-166 34-166 90-135q57-57 136-91t166-34 166 34 136 90q57 57 91 136t34 166-34 166-91 136-137 91zM955 705q69-117 69-256 0-140-68-257-69-118-186-187-118-69-257-69-140 0-257 69-118 69-187 186-69 118-69 258 0 139 69 256 69 118 186 186 118 69 257 69 140 0 257-68 118-69 186-187z" />
<glyph unicode="&#xe93d;" glyph-name="ac-plane" data-tags="ac-plane" d="M992.775 928.236q31.226-37.687 8.614-106.599-23.689-69.989-78.604-123.828l-115.213-117.367 114.137-500.694q4.307-13.998-7.537-23.689l-91.525-68.913q-6.461-4.307-13.998-4.307-4.307 0-6.461 1.077-9.691 1.077-15.075 11.844l-200.278 365.022-186.28-186.28 37.687-139.979q4.307-11.844-5.384-21.535l-68.913-69.989q-7.537-6.461-17.228-6.461h-1.077q-10.768 1.077-18.305 8.614l-135.672 181.973-181.973 135.672q-7.537 6.461-8.614 17.228-1.077 9.691 6.461 18.305l68.913 69.989q6.461 5.384 17.228 5.384h5.384l139.979-37.687 186.28 186.28-365.022 200.278q-10.768 6.461-12.921 17.228-1.077 11.844 6.461 19.382l91.525 92.601q10.768 9.691 22.612 5.384l478.082-113.060 116.29 114.137q53.838 54.915 122.751 77.527 69.989 23.689 107.676-7.537z" />
<glyph unicode="&#xe93e;" glyph-name="ac-smile" data-tags="ac-smile" horiz-adv-x="1026" d="M782 354q12-6 17-18 6-13 1-22-1-3-17-32-17-29-51-62-35-34-88-61-54-28-131-29h-3q-74 0-126 27-53 28-87 61-34 34-50 63-17 30-18 33-6 12-1 23 5 12 17 18 12 5 23 1 12-5 18-17 1-2 14-25 14-24 41-51t68-49q42-22 100-22h3q61 1 104 23 44 23 71 50 28 27 41 49 13 23 13 24 4 12 16 17 13 5 25-1zM513 960q107 0 200-40t162-109q70-70 110-163 40-94 40-200t-40-199q-40-94-109-163-70-70-163-110t-200-40q-106 0-199 40t-162 109q-70 70-110 163-41 94-41 200t40 199q41 94 110 163 70 70 163 110t199 40zM513 0q93 0 174 35 82 36 143 97t96 142q35 82 35 174t-35 174-96 142q-61 61-142 96-82 36-175 36-92 0-173-35-82-36-143-97t-96-142q-36-82-36-174t35-173q36-82 97-143t142-96q82-36 174-36zM353 480q-26 0-45 19t-19 45 19 45 45 19q27 0 45-19 19-19 19-45t-18-45q-19-19-46-19zM673 480q-26 0-45 19t-19 45 19 45 45 19q27 0 45-19 19-19 19-45t-18-45q-19-19-46-19z" />
<glyph unicode="&#xe93f;" glyph-name="ac-disk-slash" data-tags="ac-disk-slash" horiz-adv-x="1026" d="M905.5 776q28-33 50-71t37-79q16-42 24-86 8-45 7-92 0-106-40-199-40-94-109-163-70-70-163-110-94-40-200-40-47 0-91 8-45 8-86 23-42 16-79 38-38 23-72 51l-61-61q-11-12-27-12-17 0-29 12-12 11-12 27 0 17 12 29l61 61q-29 34-52 72-24 39-40 81-17 42-25 88-9 46-9 95 0 106 40 199 40 94 109 163 70 70 163 110t200 40q48 0 94-8 46-9 88-25 43-17 82-40 39-24 73-53l67 67q11 12 27 12 17 0 29-12 12-11 12-27 0-17-12-29zM961.5 448q0 80-27 153t-73 130l-230-230q5-12 8-25 3-14 3-28 0-8-1-16-1-9-4-18l284-152q19 42 29 89 11 48 11 97zM447.5 448q0-4 1-7l2-6 77 77q-4 1-7 2h-7q-28 0-47-20t-19-46zM511.5 384h2q27 0 46 19t19 47v0zM804.5 789q-30 25-63 45-34 20-71 33-37 14-76 21-40 8-81 8-58 0-111-14-54-14-101-39l168-273 20 4q11 2 22 2 18 0 34-4t30-12zM247.5 808q-35-25-63-56-29-32-52-69l283-152q0 1 1 2 1 0 1 1zM65.5 448q0-41 7-81t21-77 34-70q20-34 45-63l227 227q-7 14-11 30-5 17-5 34 0 7 1 14 1 6 2 13l-285 152q-18-41-27-86t-9-93zM229.5 101q58-47 130-74 73-27 154-27 56 0 107 13 52 13 99 37l-171 275q-9-3-17-4-9-1-18-1-15 0-28 2-13 3-25 9zM773.5 83q34 25 63 56 30 31 54 66l-285 152-1-2z" />
<glyph unicode="&#xe940;" glyph-name="ac-v-line-dotted" data-tags="ac-v-line-dotted" horiz-adv-x="356" d="M356.016-41.169c0-6.088-2.093-11.416-6.278-15.981-4.187-4.566-9.323-6.85-15.411-6.85h-310.512c-6.089 0-11.416 2.283-15.982 6.85-4.566 4.565-6.849 9.894-6.849 15.981v212.334c0 6.089 2.282 11.416 6.849 15.982s9.894 6.849 15.982 6.849h310.511c6.089 0 11.226-2.282 15.411-6.849s6.278-9.894 6.278-15.982v-212.334zM356.016 341.262c0-6.089-2.093-11.416-6.278-15.982-4.187-4.565-9.323-6.849-15.411-6.849h-310.512c-6.089 0-11.416 2.283-15.982 6.849s-6.849 9.894-6.849 15.982v212.334c0 6.089 2.282 11.416 6.849 15.982 4.566 4.565 9.894 6.849 15.982 6.849h310.511c6.089 0 11.226-2.283 15.411-6.849s6.278-9.894 6.278-15.982v-212.334zM356.016 724.834c0-15.222-7.229-22.832-21.689-22.832h-310.512c-6.089 0-11.416 2.093-15.982 6.278-4.566 4.187-6.849 9.704-6.849 16.554v212.334c0 6.089 2.282 11.416 6.849 15.981 4.566 4.566 9.894 6.85 15.982 6.85h310.511c6.089 0 11.226-2.283 15.411-6.85 4.186-4.565 6.278-9.893 6.278-15.981v-212.334z" />
<glyph unicode="&#xe941;" glyph-name="ac-check" data-tags="ac-check" d="M1023.999 687.82q0-26.582-18.492-45.074l-568.632-568.632q-18.492-18.492-43.919-18.492-26.582 0-45.074 18.492l-329.39 329.39q-18.492 18.492-18.492 45.074t18.492 45.074l90.149 88.993q18.492 18.492 45.074 18.492t45.074-18.492l194.167-194.167 432.253 433.409q18.492 18.492 45.074 18.492t45.074-18.492l90.149-90.149q18.492-18.492 18.492-43.919z" />
<glyph unicode="&#xe942;" glyph-name="ac-remove" data-tags="ac-remove" horiz-adv-x="805" d="M805.003 203.178q0-27.268-18.969-46.237l-92.475-92.475q-18.969-18.969-46.237-18.969t-46.237 18.969l-199.177 199.177-199.177-199.177q-18.969-18.969-46.237-18.969-26.083 0-45.052 18.969l-92.475 92.475q-18.969 18.969-18.969 46.237 0 26.083 18.969 45.052l199.177 199.177-199.177 199.177q-18.969 18.969-18.969 46.237t18.969 46.237l92.475 92.475q18.969 18.969 45.052 18.969 27.268 0 46.237-18.969l199.177-199.177 199.177 199.177q18.969 18.969 46.237 18.969t46.237-18.969l92.475-92.475q18.969-18.969 18.969-46.237t-18.969-46.237l-199.177-199.177 199.177-199.177q18.969-18.969 18.969-45.052z" />
<glyph unicode="&#xe943;" glyph-name="ac-check-thin" data-tags="ac-check-thin" d="M920.484 795.084q19.282 18.268 43.639 18.268 25.372 1.015 41.61-14.208 18.268-18.268 18.268-41.61 0-24.357-18.268-42.624l-598.771-605.875q0-2.030-2.030-4.059-2.030-3.045-5.074-5.074-17.253-18.268-41.61-18.268t-42.624 18.268l-297.356 298.371q-18.268 17.253-18.268 41.61t18.268 42.624q17.253 17.253 41.61 17.253t42.624-17.253l254.731-256.761z" />
<glyph unicode="&#xe944;" glyph-name="ac-fill" data-tags="ac-fill" horiz-adv-x="1010" d="M519.961 941.422c46.628 12.385 97.628 3.643 152.999-26.229 32.785-16.028 67.757-38.614 104.914-67.757s71.765-61.928 103.821-98.355c24.771-29.143 45.171-55.371 61.199-78.686 16.029-24.042 28.415-46.992 37.157-68.85 9.472-21.856 15.3-43.35 17.486-64.479 2.914-21.856 2.914-45.171 0-69.942-2.187-11.657-4.008-21.856-5.464-30.6-1.457-8.742-1.821-18.214-1.094-28.414 0.729-10.929 2.186-23.314 4.371-37.157 2.914-13.842 6.557-31.692 10.928-53.55 2.187-12.385 3.279-25.863 3.279-40.435 0.729-14.571 0.729-28.778 0-42.621s-1.457-26.593-2.186-38.25c-1.458-12.386-3.279-22.95-5.464-31.693-4.372-12.385-11.293-22.585-20.765-30.6-10.199-8.743-20.399-14.207-30.6-16.394-10.2-0.729-20.765 0.729-31.693 4.371-10.929 4.372-21.128 10.2-30.6 17.486s-17.485 15.301-24.043 24.043c-7.285 8.743-11.292 17.485-12.021 26.229-3.643 23.313 7.65 50.635 33.878 81.964 12.386 14.571 22.586 28.414 30.601 41.527s13.114 26.593 15.3 40.436c0.729 2.186-1.457 1.093-6.557-3.279s-14.571-13.479-28.414-27.321c-14.571-13.842-33.879-32.785-57.921-56.827-24.043-24.771-54.643-55.735-91.8-92.893-44.442-43.714-79.777-78.32-106.006-103.82-26.956-26.229-48.449-46.629-64.478-61.2s-27.686-24.771-34.972-30.601c-8.014-5.828-15.299-10.199-21.856-13.113-42.985-18.943-86.335-24.043-130.049-15.301-43.714 8.743-92.893 32.786-147.535 72.128-10.929 7.286-24.043 17.851-39.343 31.693-16.029 14.571-32.057 29.871-48.085 45.9s-30.963 32.057-44.807 48.085c-13.842 16.757-24.407 30.964-31.693 42.621-43.714 56.099-68.85 109.284-75.407 159.556-7.286 50.999 2.915 97.264 30.6 138.792 1.458 2.914 8.015 11.293 19.671 25.136 12.385 13.114 28.049 29.871 46.993 50.271 19.671 19.671 41.893 42.257 66.664 67.757s51 52.093 78.685 79.778c53.914 51.728 96.171 92.163 126.771 121.306s54.643 51 72.128 65.571c17.485 15.3 31.328 25.5 41.528 30.6 10.203 5.102 21.495 9.474 33.88 13.117v0zM609.574 886.78c-24.043 8.015-46.629 9.836-67.758 5.465-21.856-4.372-39.342-12.75-52.457-25.137-7.285-9.471-12.385-21.128-15.3-34.971-2.914-14.571-4.007-30.235-3.278-46.993 1.457-17.485 4.735-35.699 9.836-54.642 5.828-19.672 13.479-38.979 22.949-57.921 8.015-21.857 17.485-40.436 28.414-55.735s19.672-25.5 26.229-30.6c8.014-2.187 27.686-5.465 59.014-9.836 32.057-5.101 71.035-8.743 116.936-10.929 61.928-1.457 109.648 0 143.162 4.371 33.515 3.643 50.271 10.564 50.271 20.765 0 2.186-1.457 6.921-4.371 14.207-3.643 7.285-8.014 15.663-13.114 25.136-5.1 9.472-10.929 19.308-17.485 29.507-6.558 10.929-13.114 20.765-19.671 29.507-7.286 10.929-16.028 22.222-26.229 33.878-10.2 11.657-20.765 23.313-31.693 34.971-11.657 11.658-23.313 22.95-34.971 33.878-11.656 10.929-22.585 20.764-32.785 29.508-10.929 7.285-22.95 14.206-36.063 20.764-13.114 7.285-25.864 13.843-38.25 19.671s-24.043 10.929-34.972 15.3c-11.658 4.371-21.128 7.649-28.414 9.836v0zM422.697 757.823c-1.458 5.101-2.551 10.2-3.279 15.301-0.729 5.1-1.093 9.471-1.093 13.113-0.729 4.372-0.729 8.743 0 13.114-1.458 0-6.558-4.007-15.301-12.021-9.471-8.743-21.492-20.4-36.063-34.972s-31.328-31.692-50.271-51.363c-19.671-19.672-40.071-40.8-61.2-63.386-31.329-32.057-57.921-59.014-79.778-80.87-21.857-21.858-39.707-40.437-53.55-55.735-14.571-15.301-25.5-28.051-32.785-38.25-8.014-10.2-13.479-19.672-16.393-28.414-3.643-8.743-5.829-17.85-6.557-27.321s-1.093-20.399-1.093-32.785v-26.228c0.729-7.286 1.821-13.479 3.279-18.578l4.371-17.486c2.186-5.828 5.1-12.386 8.743-19.671 8.743-20.4 20.764-41.528 36.064-63.385s32.421-43.35 51.364-64.479c19.671-21.856 40.436-41.893 62.292-60.106 21.857-18.943 44.078-35.336 66.664-49.179 81.6-46.628 152.635-52.456 213.106-17.485 8.014 6.557 27.321 24.407 57.921 53.55 31.329 29.143 72.857 69.214 124.585 120.213l158.463 155.186-33.878 3.278c-27.686 2.187-58.285 9.472-91.799 21.857-34.242 13.114-67.393 31.328-99.449 54.642-10.929 7.285-23.314 17.485-37.156 30.601-14.571 13.113-28.778 26.956-42.621 41.527s-26.957 29.144-39.344 43.715c-13.113 14.571-23.313 27.321-30.6 38.25-16.757 23.313-29.507 47.356-38.25 72.128s-14.207 53.185-16.393 85.241l0.001-0.002z" />
<glyph unicode="&#xe945;" glyph-name="ac-remove2-thin" data-tags="ac-remove2-thin" d="M1010.949-1.757q10.039-10.039 10.039-24.094 0-15.059-10.039-26.102-10.039-10.039-25.098-10.039t-26.102 10.039l-447.749 450.761-448.753-451.765q-10.039-11.043-25.098-11.043t-26.102 11.043q-10.039 10.039-10.039 25.098t10.039 25.098l450.761 451.765-450.761 449.757q-10.039 11.043-10.039 26.102t10.039 26.102q11.043 9.035 25.098 9.035 15.059 0 24.094-9.035l450.761-452.769 448.753 450.761q10.039 10.039 25.098 10.039t26.102-10.039q10.039-10.039 10.039-25.098t-10.039-26.102l-449.757-449.757z" />
<glyph unicode="&#xe946;" glyph-name="ac-check-circle-o" data-tags="ac-check-circle-o" horiz-adv-x="1026" d="M513.498 960q105.69 0 199.416-39.883 93.725-40.88 162.524-109.679 69.796-69.796 109.679-162.524 39.883-93.725 39.883-200.413 0-105.69-39.883-198.419-40.88-93.725-109.679-162.524-69.796-69.796-162.524-109.679-93.725-40.88-199.416-40.88-106.687 0-199.416 39.883-93.725 40.88-162.524 109.679-69.796 69.796-109.679 162.524-40.88 93.725-40.88 199.416 0 106.687 39.883 199.416 40.88 93.725 109.679 162.524 69.796 69.796 162.524 109.679 93.725 40.88 200.413 40.88zM513.498-31.096q98.711 0 185.457 37.889 87.743 37.889 152.553 102.699t102.699 151.556q37.889 87.743 37.889 186.454 0 99.708-37.889 186.454-37.889 87.743-102.699 152.553t-151.556 101.702q-87.743 37.889-186.454 37.889-99.708 0-186.454-36.892-87.743-37.889-152.553-102.699t-101.702-151.556q-37.889-87.743-37.889-187.451 0-98.711 36.892-185.457 37.889-87.743 102.699-152.553t151.556-102.699q87.743-37.889 187.451-37.889zM883.414 612.020q1.994-4.985 2.991-9.971 1.994-5.982 2.991-11.965 0-5.982-0.997-11.965t-3.988-10.968q-1.994-3.988-4.985-8.974-3.988-4.985-8.974-9.971l-393.846-382.878q-4.985-4.985-9.971-7.977-4.985-3.988-8.974-5.982-4.985-2.991-10.968-3.988t-11.965-0.997-10.968 0.997q-5.982 0.997-10.968 3.988-4.985 1.994-9.971 4.985-4.985 3.988-8.974 8.974l-231.322 230.325q-4.985 3.988-7.977 8.974-3.988 4.985-6.98 9.971-1.994 4.985-2.991 9.971-1.994 5.982-1.994 11.965t0.997 11.965q1.994 5.982 3.988 10.968 2.991 3.988 5.982 8.974 3.988 4.985 8.974 9.971l59.825 60.822 9.971 7.977 9.971 5.982q3.988 1.994 9.971 3.988 5.982 0.997 11.965 0.997t11.965-0.997q5.982-1.994 9.971-3.988 4.985-1.994 9.971-5.982l9.971-7.977 130.617-129.62 288.156 282.173q4.985 4.985 9.971 7.977 4.985 3.988 9.971 6.98 3.988 1.994 9.971 2.991t11.965 0.997 11.965-0.997 9.971-2.991q5.982-2.991 9.971-5.982 4.985-3.988 9.971-8.974v0 0l59.825-60.822q4.985-3.988 7.977-8.974 3.988-4.985 6.98-9.971zM852.505 583.105q1.994 2.991 1.994 3.988 0.997 1.994 2.991 3.988v2.991l-0.997 3.988q-1.994 0.997-3.988 3.988t-3.988 4.985l-60.822 60.822q-3.988 3.988-5.982 4.985-2.991 1.994-4.985 2.991-2.991 0.997-4.985 0.997-1.994 0.997-2.991 0.997h-3.988l-3.988-1.994t-4.985-2.991-4.985-4.985l-313.083-306.103-154.547 153.55q-2.991 2.991-5.982 4.985-2.991 0.997-4.985 2.991-1.994 0.997-3.988 0.997h-7.977l-3.988-0.997q-0.997-1.994-3.988-3.988l-5.982-3.988-59.825-60.822q-3.988-2.991-4.985-4.985-1.994-1.994-2.991-4.985-1.994-0.997-1.994-2.991v-6.98l1.994-3.988q0.997-0.997 2.991-3.988t4.985-5.982l227.334-229.328q3.988-3.988 5.982-4.985 2.991-1.994 5.982-2.991 1.994-0.997 3.988-0.997 1.994-0.997 3.988-0.997h2.991l4.985 1.994q0.997 0.997 3.988 2.991t4.985 4.985l393.846 382.878q3.988 1.994 4.985 3.988 1.994 2.991 2.991 4.985z" />
<glyph unicode="&#xe947;" glyph-name="ac-remove-circle" data-tags="ac-remove-circle" d="M512 959.999q106.207 0 199.389-40.078t162.317-109.213q70.137-70.137 110.215-163.319t40.078-199.389-40.078-199.389-109.213-162.317q-70.137-70.137-163.319-110.215t-199.389-40.078-199.389 40.078-162.317 109.213q-70.137 70.137-110.215 163.319t-40.078 199.389 40.078 199.389 109.213 162.317q70.137 70.137 163.319 110.215t199.389 40.078zM512-26.928q98.192 0 184.36 37.072 87.17 37.072 151.295 101.198 65.127 65.127 102.2 151.295 37.072 87.17 37.072 185.362t-37.072 184.36q-37.072 87.17-101.198 151.295-65.127 65.127-151.295 102.2-87.17 37.072-185.362 37.072t-184.36-37.072q-87.17-37.072-151.295-101.198-65.127-65.127-102.2-151.295-38.074-87.17-38.074-185.362t37.072-184.36q38.074-87.17 102.2-151.295 65.127-65.127 151.295-102.2 87.17-37.072 185.362-37.072zM786.536 198.512q7.014-5.010 7.014-13.025t-7.014-14.027q-5.010-7.014-13.025-7.014t-14.027 7.014l-248.485 248.485-249.487-248.485q-5.010-7.014-13.025-7.014t-14.027 7.014q-7.014 5.010-7.014 13.025t7.014 14.027l248.485 249.487-248.485 249.487q-7.014 6.012-7.014 14.027t7.014 15.029q6.012 5.010 14.027 5.010t13.025-5.010l249.487-250.489 249.487 248.485q5.010 7.014 13.025 7.014t14.027-7.014q7.014-5.010 7.014-13.025t-7.014-14.027l-248.485-249.487z" />
<glyph unicode="&#xe948;" glyph-name="ac-chevron-circle-left" data-tags="ac-chevron-circle-left" horiz-adv-x="1026" d="M514.988 959.999q105.383 0 197.841-39.767 92.458-40.761 161.056-110.353t108.365-162.050q39.767-93.452 39.767-199.829t-39.767-199.829-108.365-162.050q-69.592-69.592-162.050-109.359-93.452-40.761-198.835-40.761t-197.841 39.767q-93.452 40.761-162.050 110.353-69.592 69.592-109.359 162.050-39.767 93.452-39.767 199.829t39.767 198.835q40.761 93.452 109.359 163.045 69.592 69.592 162.050 109.359 93.452 40.761 199.829 40.761zM514.988-26.223q96.435 0 181.934 36.784 85.499 37.779 149.126 102.4t100.412 151.115q37.779 86.493 37.779 183.922 0 98.423-36.784 184.917-37.779 86.493-101.406 150.12-63.627 64.621-149.126 101.406-85.499 37.779-181.934 37.779-97.429 0-182.928-36.784-85.499-37.779-149.126-102.4t-100.412-151.115-36.784-183.922 36.784-183.922 100.412-151.115 149.126-101.406q85.499-37.779 182.928-37.779zM634.289 673.676q7.953-6.959 7.953-16.901 0-10.936-7.953-19.883l-189.887-188.893 190.882-188.893q6.959-7.953 6.959-18.889t-6.959-17.895l-53.685-54.68q-6.959-6.959-17.895-6.959-11.93 0-18.889 6.959l-262.462 262.462q-6.959 7.953-6.959 18.889t6.959 17.895l53.685 54.68 206.788 206.788q7.953 6.959 18.889 6.959t17.895-6.959z" />
<glyph unicode="&#xe949;" glyph-name="ac-chevron-circle-right" data-tags="ac-chevron-circle-right" horiz-adv-x="1026" d="M514.988 959.998q105.383 0 197.841-39.767 92.458-40.761 161.056-110.353t108.365-162.050q39.767-93.452 39.767-199.829t-39.767-199.829-108.365-162.050q-69.592-69.592-162.050-109.359-93.452-40.761-198.835-40.761t-197.841 39.767q-93.452 40.761-162.050 110.353-69.592 69.592-109.359 162.050-39.767 93.452-39.767 199.829t39.767 198.835q40.761 93.452 109.359 163.045 69.592 69.592 162.050 109.359 93.452 40.761 199.829 40.761zM514.988-26.224q96.435 0 181.934 36.784 85.499 37.779 149.126 101.406 63.627 64.621 100.412 151.115 37.779 86.493 37.779 184.917t-36.784 184.917q-37.779 86.493-101.406 150.12-63.627 64.621-149.126 101.406-85.499 37.779-181.934 37.779-97.429 0-182.928-36.784-85.499-37.779-149.126-102.4t-100.412-151.115-36.784-183.922 36.784-183.922 100.412-151.115 149.126-101.406q85.499-37.779 182.928-37.779zM746.631 466.887q6.959-6.959 6.959-17.895t-6.959-18.889l-262.462-262.462q-6.959-6.959-17.895-6.959t-18.889 6.959l-53.685 54.68q-6.959 6.959-6.959 17.895t6.959 18.889l188.893 188.893-188.893 188.893q-6.959 7.953-6.959 18.889t6.959 17.895l53.685 54.68q7.953 6.959 18.889 6.959t17.895-6.959l208.777-206.788z" />
<glyph unicode="&#xe94a;" glyph-name="ac-chevron-circle-up" data-tags="ac-chevron-circle-up" horiz-adv-x="1026" d="M514.992 958.012q105.588 0 199.223-39.845t162.367-108.577q69.728-69.728 109.573-162.367 39.845-93.635 39.845-199.223t-39.845-198.227q-40.841-93.635-109.573-162.367-69.728-69.728-163.363-109.573t-200.22-39.845-199.223 39.845q-93.635 39.845-163.363 108.577-69.728 69.728-109.573 162.367-40.841 93.635-40.841 199.223t39.845 198.227q40.841 93.635 110.569 162.367 70.724 69.728 164.359 109.573t200.22 39.845zM514.992-22.167q97.619 0 183.286 36.856 86.662 36.856 150.414 100.608 64.748 63.751 102.6 149.418t37.852 183.286-36.856 183.286q-37.852 85.666-101.604 149.418-64.748 63.751-151.41 100.608t-184.282 36.856q-98.616 0-185.278-36.856t-150.414-100.608q-64.748-63.751-101.604-149.418-37.852-85.666-37.852-183.286t36.856-183.286q37.852-85.666 101.604-149.418 64.748-63.751 151.41-100.608t185.278-36.856zM794.901 418.116q6.973-7.969 6.973-18.926t-6.973-17.93l-53.79-54.786q-6.973-6.973-17.93-6.973-11.953 0-18.926 6.973l-191.254 190.258-189.262-190.258q-7.969-6.973-18.926-6.973t-17.93 6.973l-54.786 54.786q-6.973 6.973-6.973 17.93t6.973 18.926l209.185 208.188 53.79 54.786q7.969 6.973 18.926 6.973t17.93-6.973l54.786-54.786z" />
<glyph unicode="&#xe94b;" glyph-name="ac-chevron-circle-down" data-tags="ac-chevron-circle-down" horiz-adv-x="1026" d="M794.901 514.74q6.973-6.973 6.973-17.93t-6.973-18.926l-262.975-262.975q-6.973-6.973-17.93-6.973t-18.926 6.973l-53.79 54.786-209.185 208.188q-6.973 7.969-6.973 18.926t6.973 17.93l54.786 54.786q6.973 6.973 17.93 6.973t18.926-6.973l191.254-190.258 189.262 190.258q6.973 6.973 17.93 6.973 11.953 0 18.926-6.973zM514.992 958.012q105.588 0 199.223-39.845t162.367-108.577q69.728-69.728 109.573-162.367 39.845-93.635 39.845-199.223t-39.845-198.227q-40.841-93.635-109.573-162.367-69.728-69.728-163.363-109.573t-200.22-39.845-199.223 39.845q-93.635 39.845-163.363 108.577-69.728 69.728-109.573 162.367-40.841 93.635-40.841 199.223t39.845 198.227q40.841 93.635 110.569 162.367 70.724 69.728 164.359 109.573t200.22 39.845zM514.992-22.167q97.619 0 183.286 36.856 86.662 36.856 150.414 100.608 64.748 63.751 102.6 149.418t37.852 183.286-36.856 183.286q-37.852 85.666-101.604 149.418-64.748 63.751-151.41 100.608t-184.282 36.856q-98.616 0-185.278-36.856t-150.414-100.608q-64.748-63.751-101.604-149.418-37.852-85.666-37.852-183.286t36.856-183.286q37.852-85.666 101.604-149.418 64.748-63.751 151.41-100.608t185.278-36.856z" />
<glyph unicode="&#xe94c;" glyph-name="ac-bookmark" data-tags="ac-bookmark" horiz-adv-x="872" d="M791.517 960c9.994 0 19.604-2.691 28.829-8.072 16.913-4.612 29.598-13.069 38.055-25.369s12.685-26.138 12.685-41.514v-874.091c0-15.375-4.229-29.598-12.685-42.667-8.457-12.3-21.142-21.525-38.055-27.676-9.225-3.075-18.835-4.613-28.829-4.613-20.756 0-39.207 6.919-55.351 20.758l-299.82 287.135-297.513-287.135c-16.913-13.839-35.363-20.758-55.351-20.758-10.763 0-21.141 1.538-31.135 4.613-14.607 6.15-26.139 15.375-34.595 27.676-9.225 13.069-13.838 27.292-13.838 42.667v874.091c0 15.375 4.229 29.213 12.685 41.514 9.225 12.3 21.141 20.757 35.748 25.369 9.994 5.381 20.372 8.072 31.135 8.072h708.035z" />
<glyph unicode="&#xe94d;" glyph-name="ac-mobile-phone" data-tags="ac-mobile-phone" horiz-adv-x="582" d="M292.211 32.187c-12.691 0-23.379 4.008-32.063 12.023-8.684 8.683-13.025 19.704-13.025 33.064 0 12.691 4.342 23.379 13.025 32.063 9.351 8.683 20.038 13.024 32.063 13.024s22.378-4.342 31.062-13.024c9.351-8.684 14.026-19.371 14.026-32.063 0-13.359-4.342-24.047-13.024-32.063-9.352-8.682-20.040-13.024-32.064-13.024v0zM492.602 959.999c24.715 0 45.756-8.684 63.123-26.052 17.368-17.367 26.386-38.074 27.054-62.12v-846.653c0-24.715-8.684-45.756-26.052-63.123s-38.409-26.051-63.123-26.051h-403.789c-24.715 0-45.756 8.684-63.124 26.051s-26.051 38.408-26.051 63.123v846.653c0 24.046 8.684 44.753 26.051 62.12 17.368 17.369 38.409 26.052 63.124 26.052h402.787zM537.69 156.43h-491.961v-131.256c0-12.691 4.342-23.379 13.025-32.063 9.352-8.684 19.705-13.024 31.062-13.024h402.786c12.023 0 22.377 4.341 31.062 13.024 9.352 9.352 14.027 20.039 14.027 32.063v131.256h-0.001zM537.69 737.565h-491.961v-538.051h491.961v538.051zM538.692 782.653v89.174c0 12.69-4.342 23.379-13.025 32.063-9.352 8.684-19.705 13.025-31.061 13.025h-403.789c-12.023 0-22.377-4.342-31.062-13.025-9.351-9.352-14.027-20.039-14.027-32.063v-89.175l492.964 0.001zM360.344 871.827c4.676 0 9.352-2.339 14.027-7.015s7.013-10.020 7.014-16.031c0-6.68-2.004-12.023-6.012-16.030-4.676-4.008-10.020-6.013-16.031-6.013h-135.264c-6.681 0-12.023 2.005-16.031 6.013s-6.012 9.352-6.012 16.030c-0.001 6.68 2.003 12.023 6.012 16.031 4.676 4.676 10.020 7.015 16.031 7.015h136.266zM404.43 425.955c-6.68 0-12.023 2.339-16.030 7.015-4.677 4.676-7.015 9.686-7.015 15.028v45.089c0 6.68 2.004 12.357 6.013 17.032 4.676 4.009 10.354 6.013 17.032 6.013h45.089c6.68 0 12.023-2.339 16.030-7.015s6.012-10.020 6.013-16.030v-45.089c0-6.68-2.005-12.023-6.013-16.030-4.676-4.009-10.020-6.013-16.030-6.013h-45.089zM269.166 582.262c-6.012 0-11.021 2.338-15.029 7.014-4.676 4.009-7.014 9.352-7.014 16.031v45.088c0 6.681 2.004 12.023 6.012 16.031 4.676 4.008 10.020 6.012 16.031 6.012h46.090c6.68 0 12.023-2.004 16.031-6.012 4.008-4.676 6.012-10.020 6.012-16.031v-45.088c0-6.68-2.004-12.023-6.012-16.031-4.676-4.676-10.020-7.014-16.031-7.014h-46.090zM404.43 582.262c-6.68 0-12.023 2.338-16.030 7.014-4.677 4.009-7.015 9.352-7.015 16.031v45.088c0 6.681 2.004 12.023 6.013 16.031 4.676 4.008 10.354 6.012 17.032 6.012h45.089c6.68 0 12.023-2.004 16.030-6.012 4.008-4.676 6.013-10.020 6.013-16.031v-45.088c0-6.68-2.005-12.023-6.013-16.031-4.676-4.676-10.020-7.014-16.030-7.014h-45.089zM134.904 425.955c-6.013 0-11.022 2.339-15.029 7.015-4.676 4.676-7.014 9.686-7.014 15.028v45.089c0 6.68 2.004 12.357 6.012 17.032 4.676 4.009 10.020 6.013 16.031 6.013h45.088c6.68 0 12.023-2.339 16.031-7.015 4.676-4.676 7.014-10.020 7.014-16.030v-45.089c0-6.68-2.004-12.023-6.012-16.030-4.677-4.009-10.354-6.013-17.033-6.013h-45.088zM134.904 582.262c-6.013 0-11.022 2.338-15.029 7.014-4.676 4.009-7.014 9.352-7.014 16.031v45.088c0 5.344 2.004 10.020 6.012 14.027 4.676 4.676 10.020 7.348 16.031 8.016h45.088c6.68 0 12.023-2.004 16.031-6.012 4.676-4.676 7.014-10.020 7.014-16.031v-45.088c0-6.68-2.004-12.023-6.012-16.031-4.677-4.676-10.354-7.014-17.033-7.014h-45.088zM269.166 425.955c-6.012 0-11.021 2.339-15.029 7.015-4.676 4.676-7.014 9.686-7.014 15.028v45.089c0 6.68 2.004 12.357 6.012 17.032 4.676 4.009 10.020 6.013 16.031 6.013h46.090c6.68 0 12.023-2.339 16.031-7.015s6.011-10.020 6.012-16.030v-45.089c0-6.68-2.004-12.023-6.012-16.030-4.676-4.009-10.020-6.013-16.031-6.013h-46.090zM134.904 269.651c-6.013 0-11.022 2.004-15.029 6.012-4.676 4.677-7.014 10.021-7.014 16.031v45.088c0 6.681 2.004 12.024 6.012 16.031 4.676 4.676 10.020 7.014 16.031 7.014h45.088c6.68 0 12.023-2.004 16.031-6.012 4.676-4.676 7.014-10.354 7.014-17.033v-45.088c0-6.68-2.004-12.023-6.012-16.031-4.677-4.008-10.354-6.012-17.033-6.012h-45.088zM269.166 269.651c-6.012 0-11.021 2.004-15.029 6.012-4.676 4.677-7.014 10.021-7.014 16.031v45.088c0 6.681 2.004 12.024 6.012 16.031 4.676 4.676 10.020 7.014 16.031 7.014h46.090c6.68 0 12.023-2.004 16.031-6.012 4.008-4.676 6.012-10.354 6.012-17.033v-45.088c0-6.68-2.004-12.023-6.012-16.031-4.676-4.008-10.020-6.012-16.031-6.012h-46.090z" />
<glyph unicode="&#xe94e;" glyph-name="ac-chevron-up" data-tags="ac-chevron-up" d="M999.024 293.984q24.976-23.786 24.976-59.466t-24.976-60.655q-23.786-24.976-60.655-24.976-15.461 0-30.922 5.947-16.65 5.947-28.544 19.029l-311.6 311.6q-22.597 22.597-55.898 22.597t-54.708-22.597l-311.6-311.6q-23.786-24.976-59.466-24.976-36.869 0-60.655 24.976-24.976 24.976-24.976 60.655t24.976 59.466l426.964 426.964q24.976 26.165 59.466 26.165 35.679 0 59.466-26.165z" />
<glyph unicode="&#xe94f;" glyph-name="ac-chevron-down" data-tags="ac-chevron-down" d="M24.976 602.016q-24.976 23.786-24.976 59.466t24.976 60.655q11.893 13.082 27.354 19.029 16.65 5.947 33.301 5.947 15.461 0 30.922-5.947 16.65-5.947 28.544-19.029l311.6-311.6q22.597-22.597 55.898-22.597t54.708 22.597l311.6 311.6q23.786 24.976 59.466 24.976 36.869 0 60.655-24.976 24.976-24.976 24.976-60.655t-24.976-59.466l-426.964-426.964q-24.976-26.165-59.466-26.165-35.679 0-59.466 26.165z" />
<glyph unicode="&#xe950;" glyph-name="ac-download-picture" data-tags="ac-download-picture" horiz-adv-x="950" d="M878.426 505.774c21.25 0 38.849-6.309 52.794-18.926 13.946-12.617 20.919-28.555 20.918-47.813v-436.296c0-19.258-6.973-35.195-20.918-47.813s-31.543-18.926-52.794-18.926h-805.852c-19.258 0-36.192 6.309-50.802 18.926-15.274 12.617-22.911 28.555-22.911 47.813v436.295c0 19.259 7.304 35.196 21.914 47.813 15.274 12.617 32.54 18.926 51.798 18.926h104.591v-55.782h-104.591c-3.321 0-6.309-0.996-8.965-2.987-3.32-1.992-4.981-4.648-4.981-7.97v-229.104l193.245 144.436 226.117-247.036 224.125 183.284 191.253-114.553v262.973c0 7.305-4.98 10.957-14.942 10.957h-104.591v55.782l104.592 0.001zM754.909 730.894c9.297-9.297 13.945-20.587 13.945-33.868 0-13.945-4.648-26.23-13.945-36.855l-246.039-242.056c-9.298-11.289-20.919-16.934-34.864-16.934-14.609 0-26.23 5.645-34.864 16.934l-242.054 242.055c-11.289 10.625-16.934 22.578-16.934 35.859 0 13.945 5.645 25.567 16.934 34.864 7.969 9.298 18.594 13.946 31.875 13.946 13.945 0 24.903-4.648 32.872-13.946l162.366-161.37v341.666c0 12.617 4.648 23.907 13.946 33.868s21.25 14.942 35.859 14.942c13.945 0 25.566-4.98 34.864-14.942 9.961-9.961 14.942-21.251 14.942-33.868v-341.665l161.369 161.37c9.962 9.962 21.583 14.942 34.864 14.942 5.977 0 11.953-0.996 17.93-2.988 5.978-2.656 11.622-6.641 16.935-11.953l-0.001-0.001z" />
<glyph unicode="&#xe951;" glyph-name="ac-download-chart" data-tags="ac-download-chart" horiz-adv-x="953" d="M882.189 508.678c20.059 0 36.774-6.353 50.146-19.057 14.041-13.372 21.063-29.754 21.063-49.144v-438.284c0-19.39-6.687-35.103-20.060-47.138-14.041-12.704-31.091-19.056-51.15-19.056h-807.364c-21.396 0-39.115 6.018-53.156 18.053-14.71 12.704-22.065 28.751-22.065 48.141v438.285c0 19.39 7.021 35.771 21.062 49.144 14.71 12.704 32.763 19.057 54.159 19.057h104.306v-58.17h-104.306c-10.030 0-15.044-3.344-15.044-10.029v-438.284c0-1.337 1.003-3.343 3.009-6.018 2.675-2.675 6.686-4.013 12.035-4.013h807.364c3.344 0 6.687 1.338 10.029 4.013 4.012 2.675 6.019 4.681 6.019 6.018v438.283c0 4.012-1.672 6.687-5.016 8.024-4.012 1.337-7.689 2.006-11.032 2.006h-104.305v58.17l104.306-0.001zM755.819 733.336c11.366-8.692 17.050-19.725 17.050-33.098 0-14.041-5.684-26.076-17.050-36.105l-243.715-243.714c-10.697-10.698-22.732-16.048-36.105-16.048s-24.739 5.35-34.1 16.048l-247.726 243.714c-9.36 10.029-14.041 21.73-14.041 35.103 0 14.042 4.681 25.408 14.041 34.101 8.692 9.36 20.059 14.041 34.1 14.041 14.71 0 26.746-4.681 36.106-14.041l163.479-162.477v343.005c0 12.704 4.68 23.402 14.041 32.095 9.361 9.36 21.062 14.040 35.103 14.040s25.408-4.347 34.1-13.038c9.361-9.361 14.041-20.394 14.041-33.098v-343.004l163.479 162.477c3.344 6.018 8.023 10.028 14.041 12.035 6.686 2.674 12.703 4.012 18.053 4.012 7.354 0 14.041-1.003 20.060-3.009 6.016-2.676 11.031-7.021 15.043-13.039v0zM331.576 59.361h-152.447v261.767h152.447v-261.767zM554.228 59.361h-155.455v179.526h155.454v-179.526zM777.883 59.361h-156.458v327.961h156.458v-327.961z" />
<glyph unicode="&#xe952;" glyph-name="ac-chevron-up-thick" data-tags="ac-chevron-up-thick" d="M914.505 135.73q-12.166-15.208-31.43-15.208t-33.457 16.222l-337.616 337.616-337.616-341.671q-13.18-13.18-32.444-13.18-20.277 0-32.444 13.18l-97.331 96.317q-12.166 13.18-12.166 32.444 0 20.277 12.166 32.444l468.404 469.418q13.18 13.18 33.457 13.18t32.444-13.18l465.362-465.362q12.166-14.194 12.166-33.457 0-20.277-12.166-32.444z" />
<glyph unicode="&#xe953;" glyph-name="ac-chevron-down-thick" data-tags="ac-chevron-down-thick" d="M109.496 759.764q12.166 15.208 31.43 15.208t33.457-15.208l337.616-338.63 337.616 341.671q13.18 13.18 32.444 13.18 20.277 0 32.444-13.18l97.331-96.317q12.166-13.18 12.166-32.444 0-20.277-12.166-32.444l-468.404-468.404q-13.18-13.18-33.457-13.18t-32.444 13.18l-465.362 464.349q-12.166 14.194-12.166 33.457 0 20.277 12.166 32.444z" />
<glyph unicode="&#xe954;" glyph-name="ac-tint" data-tags="ac-tint" horiz-adv-x="718" d="M358.999 202.519c0 17.367-4.342 33.732-13.025 49.096-0.668 0-4.342 5.010-11.021 15.029-7.348 10.020-13.359 18.703-18.035 26.051-5.344 8.016-11.021 18.369-17.033 31.062-6.68 13.359-11.689 25.383-15.028 36.069-1.337 6.681-6.012 10.021-14.027 10.021-8.684 0-13.693-3.34-15.029-10.021-3.34-10.687-8.016-22.376-14.026-35.067-6.681-13.359-12.358-23.713-17.033-31.062l-18.035-27.053c0 0-3.674-5.010-11.022-15.029-9.351-15.363-14.026-31.729-14.026-49.096 0-24.047 8.684-44.754 26.051-62.121s38.074-26.051 62.121-26.051c24.715 0 45.756 8.684 63.123 26.051s26.051 38.074 26.051 62.121h-0.006zM715.695 292.695c0-98.191-34.735-182.022-104.204-251.491-70.137-70.137-153.967-105.205-251.491-105.205-98.192 0-182.022 34.735-251.491 104.204-70.136 70.137-105.205 154.302-105.205 252.493 0 67.466 18.703 130.923 56.11 190.372 3.34 4.676 17.701 26.051 43.084 64.125 26.051 37.407 49.43 72.142 70.137 104.204 21.376 32.063 44.755 73.144 70.138 123.241 25.382 50.766 44.754 97.524 58.113 140.274 3.34 14.695 10.688 25.717 22.043 33.064 12.023 8.016 24.047 12.024 36.070 12.024 12.691 0 24.715-3.674 36.070-11.022 12.023-8.016 19.705-19.371 23.045-34.066 13.359-42.75 32.73-89.175 58.113-139.272 25.383-50.766 48.428-92.181 69.136-124.243 21.375-32.063 44.754-66.797 70.137-104.204 26.051-38.074 40.746-59.449 44.086-64.125 37.407-58.115 56.11-121.572 56.109-190.373v0z" />
<glyph unicode="&#xe955;" glyph-name="ac-position-top" data-tags="ac-position-top" horiz-adv-x="915" d="M3.726 960h912v-114.667h-912v114.667zM233.059 504l226.667 229.333 226.667-229.333h-170.667v-568h-112v568h-170.667z" />
<glyph unicode="&#xe956;" glyph-name="ac-arrow-up" data-tags="ac-arrow-up" d="M1024.001 419.674q0-33.136-24.585-58.789l-49.169-49.169q-24.585-25.653-59.858-25.653t-58.789 25.653l-193.47 192.401v-462.831q0-34.205-24.585-55.582t-59.858-21.378h-83.374q-35.273 0-59.858 21.378t-24.585 55.582v462.831l-193.47-192.401q-23.516-25.653-58.789-25.653t-59.858 25.653l-49.169 49.169q-24.585 24.585-24.585 58.789 0 35.273 24.585 59.858l428.626 428.626q22.447 23.516 58.789 23.516 35.273 0 59.858-23.516l427.557-428.626q24.585-25.653 24.585-59.858z" />
<glyph unicode="&#xe957;" glyph-name="ac-arrow-down" data-tags="ac-arrow-down" d="M-0.001 476.326q0 33.136 24.585 58.789l49.169 49.169q24.585 25.653 59.858 25.653t58.789-25.653l193.47-192.401v462.831q0 34.205 24.585 55.582t59.858 21.378h83.374q35.273 0 59.858-21.378t24.585-55.582v-462.831l193.47 192.401q23.516 25.653 58.789 25.653t59.858-25.653l49.169-49.169q24.585-24.585 24.585-58.789 0-35.273-24.585-59.858l-428.626-428.626q-22.447-23.516-58.789-23.516-35.273 0-59.858 23.516l-427.557 428.626q-24.585 25.653-24.585 59.858z" />
<glyph unicode="&#xe958;" glyph-name="ac-arrow-up-left-square" data-tags="ac-arrow-up-left-square" d="M0 960h736l-256-256 544-544-224-224-544 544-256-256v736z" />
<glyph unicode="&#xe959;" glyph-name="ac-position-bottom" data-tags="ac-position-bottom" horiz-adv-x="910" d="M-0.5 50.666h912v-114.666h-912v114.666zM682.167 392l-226.667-229.334-226.667 229.334h170.667v568h112v-568h170.667z" />
<glyph unicode="&#xe95a;" glyph-name="ac-arrow-up-right-square" data-tags="ac-arrow-up-right-square" d="M1024 960v-736l-256 256-544-544-224 224 544 544-256 256h736z" />
<glyph unicode="&#xe95b;" glyph-name="ac-arrow-right-square" data-tags="ac-arrow-right-square" d="M528.516-47.483v297.29h-528.516v396.387h528.516v297.29l495.484-495.484z" />
<glyph unicode="&#xe95c;" glyph-name="ac-arrow-down-right-square" data-tags="ac-arrow-down-right-square" d="M1024-64h-736l256 256-544 544 224 224 544-544 256 256v-736z" />
<glyph unicode="&#xe95d;" glyph-name="ac-remove-thin" data-tags="ac-remove-thin" horiz-adv-x="783" d="M782.539 128.563c1.188-19.561-5.034-36.449-18.664-50.667-6.521-6.521-13.635-11.261-21.341-14.22-8.298-2.965-16.597-4.447-24.896-4.447s-16.3 1.482-24.003 4.447c-8.298 2.965-15.411 7.704-21.341 14.22l-245.35 245.35c-10.668 7.704-23.115 11.258-37.343 10.663-14.813-0.595-26.963-5.334-36.449-14.22l-240.912-241.794c-12.442-12.442-27.557-18.664-45.343-18.664-18.372 0-33.778 6.222-46.221 18.664-13.037 12.442-19.556 27.557-19.556 45.343s5.927 32.604 17.781 44.451l2.662 2.662 238.241 240.025c10.073 10.668 15.109 24.002 15.109 40.004-0.595 15.406-5.929 28.741-16.002 40.004l-237.351 237.351c-1.188 1.188-2.075 2.372-2.662 3.555-6.521 5.929-10.967 12.744-13.34 20.447-2.965 7.704-4.447 15.11-4.447 22.221 0 8.894 1.482 17.191 4.447 24.895 3.559 8.298 8.596 15.412 15.109 21.341 12.442 13.038 27.557 19.557 45.343 19.557 18.372 0 33.778-6.519 46.221-19.557l238.241-238.24c10.073-10.668 22.813-16.3 38.222-16.895 16.002-0.595 29.929 3.853 41.781 13.34l241.795 241.794c5.929 6.521 12.745 11.261 20.448 14.221 8.298 3.559 16.597 5.339 24.896 5.339s16.3-1.482 24.003-4.447c8.298-3.56 15.704-8.596 22.22-15.109 12.441-11.855 18.663-27.262 18.663-46.222v-3.554c-1.188-16.002-7.409-30.224-18.664-42.666l-241.795-240.025c-8.894-10.668-13.34-23.115-13.34-37.342 0-14.813 4.148-27.554 12.446-38.221l242.688-241.796c11.263-11.262 17.484-25.189 18.664-41.781l0.040-0.027z" />
<glyph unicode="&#xe95e;" glyph-name="ac-arrow-down-left-square" data-tags="ac-arrow-down-left-square" d="M0-64v736l256-256 544 544 224-224-544-544 256-256h-736z" />
<glyph unicode="&#xe95f;" glyph-name="ac-arrow-left-square" data-tags="ac-arrow-left-square" d="M495.484 943.484v-297.29h528.516v-396.387h-528.516v-297.29l-495.484 495.484z" />
<glyph unicode="&#xe960;" glyph-name="ac-chevron-left" data-tags="ac-chevron-left" horiz-adv-x="599" d="M453.129 935.024c15.857 16.651 35.679 24.976 59.466 24.976s44.005-8.325 60.654-24.977c16.651-15.857 24.977-36.075 24.977-60.654 0-10.308-1.982-20.615-5.947-30.923-3.965-11.1-10.308-20.614-19.029-28.544l-311.6-311.6c-15.064-15.064-22.597-33.697-22.597-55.898s7.532-40.437 22.597-54.708l311.6-311.6c16.651-15.857 24.977-35.68 24.977-59.466 0-24.58-8.325-44.798-24.977-60.655-16.65-16.65-36.869-24.976-60.655-24.976s-43.607 8.325-59.466 24.976l-426.964 426.965c-17.443 16.65-26.165 36.869-26.165 60.655 0 22.993 8.722 42.419 26.165 58.275l426.964 428.154z" />
<glyph unicode="&#xe961;" glyph-name="ac-chevron-right" data-tags="ac-chevron-right" horiz-adv-x="600" d="M146.484-39.024c-15.857-16.65-35.68-24.976-59.467-24.976s-44.004 8.325-60.655 24.976c-8.721 7.929-15.064 17.047-19.029 27.354-3.965 11.101-5.947 22.201-5.947 33.302 0 10.307 1.982 20.614 5.947 30.922 3.965 11.1 10.308 20.614 19.029 28.544l311.6 311.6c15.064 15.064 22.597 33.697 22.597 55.898 0 22.2-7.532 40.437-22.597 54.708l-311.6 311.6c-16.65 15.857-24.976 35.68-24.976 59.467 0 24.579 8.325 44.797 24.976 60.654 16.652 16.65 36.87 24.975 60.656 24.975s43.608-8.325 59.467-24.977l426.963-426.963c17.443-16.65 26.165-36.473 26.165-59.466 0-23.786-8.722-43.608-26.165-59.466l-426.964-428.152z" />
</font>
</defs>
</svg>
